<svg width="439" height="627" viewBox="0 0 439 627" fill="none" xmlns="http://www.w3.org/2000/svg">
<path d="M486.18 319.586C484.703 296.082 458.11 284.569 426.783 293.869C395.456 303.17 371.258 329.763 372.736 353.267C374.213 376.77 400.806 388.284 432.133 378.983C463.46 369.682 487.658 343.089 486.18 319.586Z" fill="#22A660"/>
<path d="M342.203 100.07C318.686 85.8493 282.114 99.3649 260.516 130.258C238.918 161.152 240.474 197.724 263.991 211.945C287.507 226.166 324.08 212.65 345.678 181.757C367.275 150.864 365.719 114.291 342.203 100.07Z" stroke="#D9D9D9" stroke-miterlimit="10"/>
<path d="M298.322 156.601L307.879 155.42" stroke="#D9D9D9" stroke-miterlimit="10"/>
<path d="M302.516 151.235L303.697 160.792" stroke="#D9D9D9" stroke-miterlimit="10"/>
<path d="M430.185 254.55L348.897 264.708" stroke="#D9D9D9" stroke-miterlimit="10"/>
<path d="M433.802 249.913L352.514 260.071" stroke="#D9D9D9" stroke-miterlimit="10"/>
<path d="M437.423 245.282L356.134 255.435" stroke="#D9D9D9" stroke-miterlimit="10"/>
<path d="M441.044 240.641L359.755 250.794" stroke="#D9D9D9" stroke-miterlimit="10"/>
<path d="M444.661 236L363.372 246.154" stroke="#D9D9D9" stroke-miterlimit="10"/>
<path d="M448.278 231.367L366.989 241.521" stroke="#D9D9D9" stroke-miterlimit="10"/>
<path d="M451.9 226.727L370.611 236.88" stroke="#D9D9D9" stroke-miterlimit="10"/>
<path d="M455.517 222.09L374.228 232.244" stroke="#D9D9D9" stroke-miterlimit="10"/>
<path d="M459.128 217.455L377.85 227.609" stroke="#D9D9D9" stroke-miterlimit="10"/>
<path d="M462.745 212.814L381.467 222.968" stroke="#D9D9D9" stroke-miterlimit="10"/>
<path d="M466.364 208.175L385.077 218.333" stroke="#D9D9D9" stroke-miterlimit="10"/>
<path d="M469.982 203.538L388.694 213.696" stroke="#D9D9D9" stroke-miterlimit="10"/>
<path d="M473.603 198.907L392.314 209.06" stroke="#D9D9D9" stroke-miterlimit="10"/>
<path d="M477.22 194.266L395.931 204.419" stroke="#D9D9D9" stroke-miterlimit="10"/>
<path d="M480.841 189.629L399.552 199.783" stroke="#D9D9D9" stroke-miterlimit="10"/>
<path d="M484.458 184.989L403.169 195.142" stroke="#D9D9D9" stroke-miterlimit="10"/>
<path d="M165.164 515.564C165.135 515.096 164.606 514.866 163.983 515.051C163.36 515.236 162.878 515.766 162.908 516.234C162.937 516.702 163.466 516.931 164.089 516.746C164.712 516.561 165.194 516.032 165.164 515.564Z" fill="white"/>
<path d="M173.705 514.509C173.676 514.041 173.147 513.812 172.524 513.997C171.901 514.182 171.42 514.711 171.449 515.179C171.478 515.647 172.007 515.877 172.63 515.692C173.254 515.507 173.735 514.977 173.705 514.509Z" fill="white"/>
<path d="M182.262 513.451C182.233 512.983 181.704 512.753 181.081 512.938C180.457 513.123 179.976 513.652 180.006 514.12C180.035 514.588 180.564 514.818 181.187 514.633C181.81 514.448 182.291 513.919 182.262 513.451Z" fill="white"/>
<path d="M189.627 511.895C189.853 511.828 190.077 511.813 190.269 511.853C190.462 511.893 190.615 511.986 190.708 512.119C190.801 512.252 190.83 512.419 190.792 512.599C190.753 512.779 190.649 512.964 190.492 513.129C190.335 513.294 190.133 513.432 189.911 513.526C189.69 513.619 189.46 513.663 189.251 513.652C189.042 513.641 188.863 513.576 188.738 513.465C188.613 513.354 188.547 513.202 188.549 513.029C188.552 512.808 188.665 512.567 188.866 512.356C189.066 512.145 189.339 511.98 189.627 511.895Z" fill="white"/>
<path d="M198.173 510.839C198.399 510.771 198.624 510.755 198.818 510.793C199.012 510.832 199.166 510.923 199.261 511.056C199.356 511.188 199.387 511.355 199.349 511.535C199.312 511.716 199.208 511.901 199.052 512.067C198.896 512.232 198.693 512.371 198.472 512.465C198.251 512.559 198.02 512.604 197.81 512.594C197.6 512.583 197.421 512.518 197.295 512.407C197.17 512.296 197.104 512.144 197.106 511.97C197.106 511.751 197.217 511.511 197.416 511.3C197.615 511.089 197.886 510.924 198.173 510.839Z" fill="white"/>
<path d="M113.043 515.189C113.014 514.721 112.485 514.491 111.862 514.676C111.239 514.861 110.757 515.391 110.787 515.859C110.816 516.327 111.345 516.556 111.968 516.371C112.591 516.186 113.073 515.657 113.043 515.189Z" fill="white"/>
<path d="M121.59 514.134C121.561 513.666 121.032 513.437 120.409 513.622C119.786 513.807 119.304 514.336 119.334 514.804C119.363 515.272 119.892 515.502 120.515 515.317C121.138 515.132 121.62 514.602 121.59 514.134Z" fill="white"/>
<path d="M130.133 513.076C130.104 512.608 129.575 512.378 128.952 512.563C128.329 512.748 127.847 513.278 127.877 513.746C127.906 514.214 128.435 514.443 129.058 514.258C129.681 514.073 130.163 513.544 130.133 513.076Z" fill="white"/>
<path d="M138.688 512.021C138.658 511.553 138.129 511.323 137.506 511.508C136.883 511.693 136.402 512.223 136.431 512.691C136.461 513.159 136.99 513.388 137.613 513.203C138.236 513.018 138.717 512.489 138.688 512.021Z" fill="white"/>
<path d="M146.046 510.471C146.201 510.413 146.36 510.379 146.512 510.372C146.664 510.365 146.805 510.384 146.927 510.429C147.048 510.474 147.147 510.543 147.218 510.632C147.289 510.721 147.329 510.828 147.336 510.947C147.344 511.065 147.318 511.192 147.261 511.319C147.204 511.446 147.117 511.57 147.006 511.684C146.894 511.798 146.76 511.899 146.613 511.981C146.466 512.062 146.309 512.122 146.152 512.158C145.871 512.22 145.606 512.199 145.408 512.099C145.21 511.999 145.093 511.827 145.08 511.617C145.067 511.406 145.158 511.172 145.337 510.96C145.515 510.748 145.768 510.574 146.046 510.471Z" fill="white"/>
<path d="M154.608 509.395C154.831 509.329 155.052 509.314 155.244 509.352C155.435 509.39 155.588 509.479 155.683 509.609C155.778 509.738 155.811 509.902 155.778 510.079C155.745 510.257 155.647 510.44 155.497 510.605C155.346 510.77 155.15 510.911 154.934 511.008C154.717 511.106 154.489 511.157 154.279 511.154C154.068 511.151 153.885 511.094 153.753 510.992C153.62 510.889 153.544 510.745 153.533 510.577C153.525 510.466 153.546 510.347 153.595 510.227C153.645 510.107 153.722 509.989 153.822 509.879C153.923 509.769 154.044 509.669 154.178 509.586C154.313 509.503 154.459 509.438 154.608 509.395Z" fill="white"/>
<path d="M164.336 508.853C164.307 508.385 163.778 508.155 163.155 508.34C162.532 508.525 162.05 509.055 162.08 509.523C162.109 509.991 162.638 510.22 163.261 510.035C163.884 509.85 164.366 509.321 164.336 508.853Z" fill="white"/>
<path d="M172.879 507.798C172.85 507.33 172.321 507.101 171.698 507.286C171.075 507.471 170.593 508 170.623 508.468C170.652 508.936 171.181 509.166 171.804 508.981C172.427 508.796 172.909 508.266 172.879 507.798Z" fill="white"/>
<path d="M181.434 506.744C181.404 506.275 180.875 506.046 180.252 506.231C179.629 506.416 179.148 506.945 179.177 507.413C179.207 507.881 179.736 508.111 180.359 507.926C180.982 507.741 181.463 507.212 181.434 506.744Z" fill="white"/>
<path d="M188.799 505.172C189.022 505.106 189.244 505.091 189.435 505.129C189.626 505.167 189.779 505.257 189.874 505.386C189.97 505.516 190.003 505.679 189.969 505.857C189.936 506.034 189.838 506.217 189.688 506.382C189.538 506.548 189.342 506.688 189.125 506.786C188.908 506.883 188.68 506.934 188.47 506.931C188.26 506.928 188.077 506.872 187.944 506.769C187.811 506.667 187.735 506.522 187.724 506.355C187.71 506.13 187.815 505.879 188.017 505.657C188.219 505.436 188.5 505.261 188.799 505.172Z" fill="white"/>
<path d="M197.343 504.121C197.567 504.053 197.789 504.036 197.982 504.073C198.174 504.11 198.329 504.198 198.426 504.327C198.523 504.456 198.557 504.619 198.525 504.797C198.493 504.974 198.396 505.158 198.246 505.324C198.096 505.49 197.901 505.631 197.684 505.729C197.466 505.828 197.238 505.879 197.027 505.876C196.816 505.874 196.633 505.818 196.5 505.715C196.366 505.613 196.29 505.468 196.279 505.3C196.271 505.19 196.292 505.071 196.341 504.952C196.39 504.833 196.466 504.715 196.565 504.605C196.664 504.496 196.784 504.396 196.917 504.313C197.051 504.23 197.196 504.165 197.343 504.121Z" fill="white"/>
<path d="M111.034 507.957C111.256 507.892 111.476 507.876 111.666 507.914C111.857 507.951 112.01 508.039 112.106 508.167C112.201 508.295 112.236 508.457 112.206 508.633C112.175 508.808 112.08 508.99 111.933 509.156C111.786 509.321 111.593 509.462 111.378 509.562C111.164 509.662 110.937 509.715 110.727 509.716C110.516 509.717 110.332 509.665 110.195 509.567C110.059 509.469 109.977 509.328 109.961 509.164C109.949 509.052 109.968 508.931 110.016 508.809C110.064 508.688 110.141 508.567 110.241 508.454C110.341 508.342 110.463 508.24 110.599 508.155C110.735 508.069 110.883 508.002 111.034 507.957Z" fill="white"/>
<path d="M119.577 506.903C119.799 506.837 120.018 506.822 120.209 506.859C120.4 506.896 120.552 506.984 120.648 507.112C120.744 507.24 120.779 507.402 120.748 507.578C120.718 507.754 120.623 507.936 120.476 508.101C120.328 508.266 120.136 508.408 119.921 508.507C119.707 508.607 119.48 508.661 119.27 508.662C119.059 508.663 118.874 508.611 118.738 508.512C118.602 508.414 118.52 508.274 118.503 508.109C118.493 507.997 118.513 507.877 118.562 507.755C118.611 507.634 118.687 507.513 118.787 507.401C118.887 507.289 119.008 507.187 119.144 507.102C119.279 507.016 119.426 506.949 119.577 506.903Z" fill="white"/>
<path d="M128.118 505.857C128.343 505.78 128.57 505.755 128.769 505.785C128.968 505.814 129.131 505.897 129.236 506.023C129.341 506.148 129.383 506.31 129.358 506.489C129.332 506.667 129.24 506.852 129.093 507.022C128.945 507.191 128.75 507.336 128.532 507.439C128.314 507.541 128.083 507.595 127.869 507.595C127.655 507.595 127.468 507.54 127.333 507.438C127.197 507.335 127.118 507.19 127.107 507.02C127.093 506.804 127.19 506.562 127.378 506.346C127.566 506.13 127.831 505.955 128.118 505.857Z" fill="white"/>
<path d="M136.679 504.789C136.9 504.724 137.12 504.708 137.311 504.746C137.501 504.783 137.654 504.871 137.75 504.999C137.846 505.127 137.881 505.289 137.85 505.465C137.819 505.64 137.724 505.822 137.577 505.988C137.43 506.153 137.237 506.294 137.023 506.394C136.808 506.494 136.582 506.547 136.371 506.548C136.161 506.549 135.976 506.497 135.84 506.399C135.704 506.301 135.622 506.161 135.605 505.996C135.594 505.884 135.613 505.763 135.661 505.641C135.709 505.52 135.785 505.399 135.885 505.286C135.986 505.174 136.107 505.072 136.244 504.987C136.38 504.901 136.528 504.834 136.679 504.789Z" fill="white"/>
<path d="M145.22 503.744C145.445 503.667 145.671 503.642 145.871 503.671C146.07 503.701 146.232 503.784 146.337 503.909C146.442 504.035 146.485 504.197 146.459 504.375C146.434 504.553 146.341 504.739 146.194 504.909C146.047 505.078 145.852 505.223 145.634 505.325C145.415 505.428 145.185 505.482 144.971 505.482C144.757 505.482 144.57 505.427 144.434 505.324C144.298 505.222 144.22 505.076 144.209 504.907C144.197 504.69 144.295 504.45 144.483 504.234C144.67 504.018 144.934 503.843 145.22 503.744Z" fill="white"/>
<path d="M153.776 502.676C153.998 502.61 154.218 502.595 154.409 502.632C154.599 502.67 154.752 502.758 154.848 502.886C154.944 503.013 154.978 503.175 154.948 503.351C154.917 503.527 154.822 503.709 154.675 503.874C154.528 504.04 154.335 504.181 154.121 504.281C153.906 504.381 153.68 504.434 153.469 504.435C153.259 504.436 153.074 504.384 152.937 504.286C152.801 504.187 152.72 504.047 152.703 503.883C152.691 503.771 152.71 503.65 152.759 503.528C152.807 503.406 152.883 503.286 152.983 503.173C153.083 503.061 153.205 502.959 153.341 502.873C153.477 502.788 153.625 502.721 153.776 502.676Z" fill="white"/>
<path d="M162.322 501.618C162.543 501.554 162.762 501.541 162.952 501.579C163.141 501.618 163.292 501.707 163.386 501.836C163.481 501.964 163.514 502.126 163.482 502.302C163.45 502.478 163.354 502.659 163.207 502.824C163.059 502.988 162.866 503.129 162.652 503.228C162.438 503.327 162.212 503.38 162.002 503.38C161.792 503.381 161.608 503.329 161.472 503.23C161.336 503.132 161.255 502.992 161.238 502.828C161.227 502.715 161.246 502.594 161.295 502.471C161.343 502.349 161.421 502.227 161.522 502.114C161.623 502.002 161.746 501.899 161.884 501.814C162.021 501.729 162.17 501.662 162.322 501.618Z" fill="white"/>
<path d="M127.29 499.15C127.515 499.073 127.743 499.048 127.942 499.078C128.142 499.108 128.304 499.191 128.409 499.317C128.514 499.443 128.555 499.606 128.529 499.785C128.503 499.963 128.409 500.149 128.261 500.319C128.113 500.488 127.916 500.633 127.697 500.735C127.479 500.836 127.247 500.89 127.033 500.888C126.82 500.887 126.634 500.83 126.499 500.726C126.364 500.622 126.288 500.476 126.279 500.305C126.265 500.089 126.362 499.849 126.55 499.634C126.739 499.419 127.004 499.245 127.29 499.15Z" fill="white"/>
<path d="M135.851 498.078C136.075 498.012 136.297 497.997 136.488 498.035C136.68 498.073 136.833 498.163 136.928 498.293C137.023 498.423 137.055 498.588 137.021 498.766C136.987 498.943 136.888 499.127 136.736 499.292C136.585 499.457 136.388 499.597 136.17 499.694C135.953 499.791 135.725 499.841 135.515 499.837C135.304 499.832 135.122 499.775 134.991 499.671C134.859 499.567 134.784 499.421 134.776 499.253C134.761 499.142 134.778 499.023 134.825 498.902C134.873 498.781 134.95 498.661 135.051 498.55C135.153 498.439 135.277 498.34 135.415 498.258C135.552 498.177 135.701 498.116 135.851 498.078Z" fill="white"/>
<path d="M144.392 497.036C144.617 496.96 144.844 496.935 145.044 496.965C145.243 496.994 145.406 497.078 145.51 497.204C145.615 497.33 145.657 497.493 145.631 497.671C145.604 497.85 145.511 498.036 145.363 498.206C145.214 498.375 145.018 498.52 144.799 498.621C144.58 498.723 144.349 498.776 144.135 498.775C143.921 498.773 143.735 498.717 143.6 498.613C143.466 498.509 143.389 498.362 143.38 498.192C143.369 497.976 143.467 497.736 143.655 497.522C143.843 497.307 144.106 497.134 144.392 497.036Z" fill="white"/>
<path d="M152.949 495.969C153.173 495.902 153.394 495.887 153.586 495.926C153.778 495.964 153.931 496.054 154.025 496.184C154.12 496.314 154.153 496.478 154.119 496.656C154.085 496.834 153.986 497.017 153.834 497.183C153.683 497.348 153.486 497.488 153.268 497.585C153.051 497.682 152.822 497.732 152.612 497.727C152.402 497.723 152.22 497.665 152.088 497.561C151.957 497.457 151.882 497.312 151.874 497.143C151.859 497.033 151.876 496.914 151.923 496.792C151.971 496.671 152.048 496.551 152.149 496.441C152.251 496.33 152.374 496.23 152.512 496.149C152.65 496.068 152.799 496.006 152.949 495.969Z" fill="white"/>
<path d="M161.503 494.894C161.783 494.832 162.048 494.852 162.246 494.952C162.444 495.052 162.561 495.224 162.575 495.435C162.588 495.645 162.496 495.879 162.318 496.091C162.139 496.303 161.886 496.478 161.609 496.581C161.453 496.639 161.294 496.672 161.142 496.68C160.99 496.687 160.849 496.667 160.728 496.623C160.606 496.578 160.507 496.509 160.436 496.419C160.366 496.33 160.326 496.223 160.318 496.105C160.311 495.987 160.336 495.86 160.393 495.733C160.45 495.606 160.537 495.481 160.649 495.367C160.76 495.253 160.894 495.152 161.041 495.071C161.188 494.989 161.345 494.929 161.503 494.894Z" fill="white"/>
<path d="M127.645 492.919C127.615 492.451 127.086 492.222 126.463 492.407C125.84 492.592 125.359 493.121 125.388 493.589C125.418 494.057 125.947 494.287 126.57 494.102C127.193 493.917 127.674 493.387 127.645 492.919Z" fill="white"/>
<path d="M136.199 491.865C136.17 491.397 135.641 491.167 135.018 491.352C134.395 491.537 133.914 492.066 133.943 492.535C133.972 493.003 134.501 493.232 135.125 493.047C135.748 492.862 136.229 492.333 136.199 491.865Z" fill="white"/>
<path d="M143.56 490.318C143.785 490.241 144.012 490.216 144.212 490.246C144.411 490.276 144.574 490.359 144.678 490.485C144.783 490.611 144.825 490.774 144.799 490.953C144.772 491.131 144.679 491.317 144.53 491.487C144.382 491.656 144.186 491.801 143.967 491.903C143.748 492.004 143.517 492.058 143.303 492.056C143.089 492.055 142.903 491.998 142.768 491.894C142.634 491.79 142.557 491.644 142.548 491.473C142.537 491.257 142.635 491.018 142.823 490.803C143.011 490.588 143.274 490.415 143.56 490.318Z" fill="white"/>
<path d="M152.121 489.25C152.345 489.184 152.566 489.169 152.758 489.207C152.949 489.245 153.102 489.335 153.197 489.465C153.292 489.595 153.325 489.76 153.29 489.938C153.256 490.115 153.157 490.299 153.006 490.464C152.855 490.629 152.658 490.769 152.44 490.866C152.222 490.963 151.994 491.013 151.784 491.009C151.574 491.004 151.392 490.947 151.26 490.843C151.129 490.739 151.054 490.593 151.045 490.425C151.031 490.314 151.047 490.195 151.095 490.074C151.142 489.953 151.219 489.833 151.321 489.722C151.423 489.611 151.546 489.512 151.684 489.43C151.822 489.349 151.971 489.288 152.121 489.25Z" fill="white"/>
<path d="M161.844 488.697C161.815 488.229 161.286 487.999 160.663 488.184C160.039 488.369 159.558 488.899 159.588 489.367C159.617 489.835 160.146 490.064 160.769 489.879C161.392 489.694 161.873 489.165 161.844 488.697Z" fill="white"/>
<path d="M170.391 487.642C170.361 487.174 169.833 486.945 169.209 487.13C168.586 487.315 168.105 487.844 168.134 488.312C168.164 488.78 168.693 489.009 169.316 488.824C169.939 488.639 170.42 488.11 170.391 487.642Z" fill="white"/>
<path d="M178.944 486.583C178.914 486.115 178.385 485.886 177.762 486.071C177.139 486.256 176.658 486.785 176.687 487.253C176.717 487.721 177.246 487.951 177.869 487.766C178.492 487.581 178.973 487.051 178.944 486.583Z" fill="white"/>
<path d="M208.021 187.871C206.05 156.519 170.576 141.16 128.787 153.567C86.9984 165.974 54.7195 201.448 56.6902 232.8C58.6609 264.153 94.1349 279.512 135.924 267.105C177.712 254.698 209.991 219.224 208.021 187.871Z" fill="#F3BC2F"/>
<path d="M448.279 323.775C418.822 305.962 373.012 322.891 345.96 361.587C318.907 400.284 320.856 446.093 350.312 463.906C379.769 481.719 425.578 464.79 452.631 426.093C479.684 387.397 477.735 341.587 448.279 323.775Z" stroke="#D9D9D9" stroke-width="2" stroke-miterlimit="10"/>
<path d="M447.973 337.564C422.82 322.353 383.703 336.809 360.602 369.852C337.501 402.895 339.165 442.013 364.318 457.223C389.472 472.434 428.589 457.978 451.69 424.935C474.79 391.892 473.126 352.774 447.973 337.564Z" stroke="#D9D9D9" stroke-width="1.8" stroke-miterlimit="10"/>
<path d="M467.946 384.636C466.515 361.869 440.755 350.717 410.41 359.726C380.066 368.735 356.626 394.494 358.057 417.261C359.488 440.028 385.248 451.18 415.593 442.171C445.937 433.162 469.377 407.402 467.946 384.636Z" stroke="#D9D9D9" stroke-width="1.6" stroke-miterlimit="10"/>
<path d="M463.454 391.56C462.319 373.497 441.881 364.648 417.805 371.796C393.73 378.944 375.133 399.382 376.268 417.445C377.403 435.508 397.841 444.357 421.917 437.209C445.993 430.061 464.59 409.623 463.454 391.56Z" stroke="#D9D9D9" stroke-width="1.4" stroke-miterlimit="10"/>
<path d="M458.971 398.481C458.131 385.117 443.01 378.57 425.197 383.859C407.384 389.147 393.625 404.269 394.465 417.633C395.305 430.997 410.426 437.544 428.239 432.255C446.052 426.967 459.811 411.846 458.971 398.481Z" stroke="#D9D9D9" stroke-width="1.2" stroke-miterlimit="10"/>
<path d="M454.492 405.418C453.947 396.753 444.142 392.508 432.593 395.937C421.043 399.366 412.121 409.171 412.666 417.836C413.211 426.502 423.015 430.747 434.565 427.317C446.115 423.888 455.036 414.084 454.492 405.418Z" stroke="#D9D9D9" stroke-miterlimit="10"/>
<mask id="mask0_57_71" style="mask-type:alpha" maskUnits="userSpaceOnUse" x="91" y="179" width="284" height="283">
<circle cx="233.013" cy="320.765" r="140.5" transform="rotate(-97.04 233.013 320.765)" fill="black" stroke="#B4B4B4"/>
</mask>
<g mask="url(#mask0_57_71)">
<path d="M134.561 493.403C128.068 464.119 108.108 440.912 101.395 411.45C96.6407 390.621 86.8905 371.755 84.0012 350.326C76.2019 292.62 74.0801 232.964 69.2518 174.445" stroke="#B4B4B4" stroke-width="0.75" stroke-miterlimit="10"/>
<path d="M139.353 492.894C132.186 464.09 114.92 439.876 107.974 410.872C102.902 389.683 91.6922 371.205 88.7096 349.245C80.9067 291.914 79.1428 232.007 74.9729 173.623" stroke="#B4B4B4" stroke-width="0.75" stroke-miterlimit="10"/>
<path d="M143.201 492.711C136.228 464.397 123.049 438.352 115.426 410.246C109.508 388.396 95.2463 370.452 92.1069 347.586C88.7218 322.751 93.8241 296.095 92.1247 270.87C89.8837 237.718 83.3339 205.744 80.8981 172.546" stroke="#B4B4B4" stroke-width="0.75" stroke-miterlimit="10"/>
<path d="M146.268 492.512C140.144 464.641 132.284 436.38 123.874 409.331C116.737 386.622 98.2232 369.402 94.9026 345.145C91.5746 320.235 101.542 292.956 101.076 267.453C100.455 234.257 90.3669 203.734 87.6148 171.13" stroke="#B4B4B4" stroke-width="0.75" stroke-miterlimit="10"/>
<path d="M148.718 492.424C143.892 464.656 141.501 434.813 132.981 408.341C125.235 384.249 100.324 368.339 97.0457 342.313C93.8571 317.166 109.57 289.332 110.819 263.411C112.414 230.266 98.0392 201.36 94.7357 169.572" stroke="#B4B4B4" stroke-width="0.75" stroke-miterlimit="10"/>
<path d="M149.852 492.474C146.707 464.861 151.624 432.873 141.821 407.427C132.161 382.367 101.554 367.226 98.4332 339.339C95.6194 313.817 117.34 285.611 120.662 259.207C124.783 226.347 105.831 198.991 101.882 168.328" stroke="#B4B4B4" stroke-width="0.75" stroke-miterlimit="10"/>
<path d="M149.242 492.691C147.957 465.002 160.304 431.562 149.343 406.773C137.917 380.938 101.766 366.231 99.2239 336.534C96.99 310.502 124.298 282.195 129.762 255.357C136.305 222.985 113.173 197.121 108.625 167.845" stroke="#B4B4B4" stroke-width="0.75" stroke-miterlimit="10"/>
<path d="M148.743 492.9C149.295 464.824 168.903 430.796 156.704 406.206C143.51 379.628 102.561 365.065 99.9409 333.751C97.7551 307.502 131.118 278.616 138.585 251.578C147.415 219.828 120.226 195.34 115.143 167.505" stroke="#B4B4B4" stroke-width="0.75" stroke-miterlimit="10"/>
<path d="M148.607 493.11C150.929 464.344 177.458 430.525 163.928 405.674C149.131 378.496 103.208 363.844 100.843 331.023C98.8562 304.432 137.712 275.108 147.137 247.893C157.923 216.764 127.053 193.633 121.47 167.205" stroke="#B4B4B4" stroke-width="0.75" stroke-miterlimit="10"/>
<path d="M149.026 493.265C152.961 463.681 185.891 430.615 171.004 405.177C154.801 377.5 104.122 362.612 102.016 328.467C100.347 301.483 144.292 271.76 155.311 244.457C167.734 213.833 133.534 192.167 127.532 166.889" stroke="#B4B4B4" stroke-width="0.75" stroke-miterlimit="10"/>
<path d="M150.153 493.261C155.445 462.869 194.055 430.848 177.929 404.643C160.573 376.517 105.571 361.373 103.744 326.064C102.327 298.644 150.77 268.707 163.183 241.29C176.908 210.975 139.801 190.849 133.49 166.482" stroke="#B4B4B4" stroke-width="0.75" stroke-miterlimit="10"/>
<path d="M152.101 493.176C158.351 462.046 201.872 431.177 184.625 404.146C175.864 390.414 159.436 379.491 146.228 368.82C132.156 357.474 106.968 343.137 106.13 324.015C104.89 296.087 157.177 266.209 170.626 238.604C185.338 208.392 145.777 189.883 139.283 166.114" stroke="#B4B4B4" stroke-width="0.75" stroke-miterlimit="10"/>
<path d="M155.041 492.917C161.694 461.185 209.084 431.554 191.062 403.646C181.984 389.611 164.684 378.497 150.997 367.707C136.569 356.344 110.122 341.868 109.347 322.356C108.225 293.781 163.466 264.419 177.648 236.498C192.962 206.195 151.511 189.171 144.978 165.7" stroke="#B4B4B4" stroke-width="0.75" stroke-miterlimit="10"/>
<path d="M159.112 492.479C165.471 460.268 215.558 431.854 197.183 403.158C188.041 388.897 169.971 377.638 156.003 366.823C141.268 355.406 114.342 341.02 113.576 321.183C112.459 291.804 169.621 263.513 184.016 235.019C199.487 204.393 156.782 188.757 150.421 165.146" stroke="#B4B4B4" stroke-width="0.75" stroke-miterlimit="10"/>
<path d="M164.457 491.928C170.865 459.816 220.823 431.248 202.35 402.78C193.069 388.482 175.252 377.088 161.333 366.083C146.76 354.558 119.921 339.998 118.922 320.306C117.443 290.935 175.332 262.777 189.667 234.309C205.255 203.367 162.053 188.328 155.859 164.443" stroke="#B4B4B4" stroke-width="0.75" stroke-miterlimit="10"/>
<path d="M170.269 491.892C176.89 460.189 223.792 430.609 205.65 402.904C196.27 388.568 179.677 376.811 166.189 365.36C152.322 353.51 125.924 338.178 124.8 318.842C123.125 290.192 180.714 261.764 195.015 234.023C211.011 202.962 167.335 187.763 161.112 163.807" stroke="#B4B4B4" stroke-width="0.75" stroke-miterlimit="10"/>
<path d="M176.35 492.419C182.578 460.996 224.999 430.825 207.864 403.612C198.75 389.047 183.452 376.811 170.656 364.647C157.642 352.248 132.206 335.967 131.211 316.791C129.76 288.729 186.327 261.013 200.62 233.909C216.999 202.838 172.592 187.142 166.339 163.232" stroke="#B4B4B4" stroke-width="0.75" stroke-miterlimit="10"/>
<path d="M182.706 493.371C187.978 462.252 224.801 431.649 209.058 404.678C200.4 389.83 186.599 376.866 174.727 363.961C162.65 350.837 138.693 333.433 138.006 314.271C137.095 286.667 192.001 260.428 206.302 233.944C223.038 202.905 177.703 186.577 171.398 162.691" stroke="#B4B4B4" stroke-width="0.75" stroke-miterlimit="10"/>
<path d="M189.223 494.704C193.13 463.941 223.495 432.945 209.561 406.056C201.664 390.721 189.381 377.025 178.623 363.297C167.654 349.283 145.428 330.739 145.31 311.402C145.138 284.114 198.018 260.076 212.162 234.074C229.078 203.085 182.805 186.069 176.379 162.169" stroke="#B4B4B4" stroke-width="0.75" stroke-miterlimit="10"/>
<path d="M195.904 496.316C198.18 466.001 221.523 434.592 209.538 407.692C202.475 391.841 191.861 377.292 182.398 362.697C172.657 347.659 152.507 327.944 153.013 308.332C153.794 280.579 205.41 260.317 218.216 234.248C233.917 202.276 188.178 186.581 181.32 161.611" stroke="#B4B4B4" stroke-width="0.75" stroke-miterlimit="10"/>
<path d="M202.371 498.288C202.77 470.164 218.549 439.144 210.225 413.274C203.313 391.793 190.939 372.362 180.722 352.41C173.859 338.98 160.521 322.348 161.991 305.68C164.575 276.685 213.975 259.623 225.55 231.91C238.13 201.766 192.533 185.346 185.863 161.248" stroke="#B4B4B4" stroke-width="0.75" stroke-miterlimit="10"/>
<path d="M208.998 500.157C207.711 472.159 216.223 441.731 209.351 415.346C203.546 393.247 193.796 372.567 185.543 351.491C179.923 337.146 168.47 319.853 170.388 302.831C173.557 274.647 220.138 259.162 231.519 232.37C244.338 202.228 197.256 184.882 190.496 160.82" stroke="#B4B4B4" stroke-width="0.75" stroke-miterlimit="10"/>
<path d="M215.502 502.025C212.582 474.009 213.969 444.66 208.501 417.429C203.999 394.671 196.733 372.839 190.591 350.691C186.312 335.411 176.835 317.594 179.155 300.2C182.747 272.925 226.4 258.642 237.46 232.818C250.409 202.613 201.974 184.539 195.018 160.373" stroke="#B4B4B4" stroke-width="0.75" stroke-miterlimit="10"/>
<path d="M221.827 503.825C217.405 475.623 211.992 447.774 207.921 419.462C204.579 396.132 200.074 373.166 195.977 350.092C193.108 333.892 185.704 315.69 188.283 297.954C192.054 271.601 232.793 258.147 243.351 233.226C256.253 202.83 206.562 184.211 199.393 159.919" stroke="#B4B4B4" stroke-width="0.75" stroke-miterlimit="10"/>
<path d="M227.89 505.46C222.246 476.96 210.532 450.83 207.849 421.326C205.683 397.498 203.83 373.58 201.82 349.708C200.398 332.646 195.071 314.288 197.772 296.206C201.659 270.747 239.282 257.668 249.147 233.628C261.856 202.816 211.034 184.151 203.632 159.496" stroke="#B4B4B4" stroke-width="0.75" stroke-miterlimit="10"/>
<path d="M234.483 505.656C228.18 476.863 211.28 452.553 209.978 421.985C208.233 381.094 203.034 337.185 209.211 294.516C212.738 270.078 246.712 256.806 255.455 233.637C267.247 202.358 216.885 184.101 209.334 158.907" stroke="#B4B4B4" stroke-width="0.75" stroke-miterlimit="10"/>
<path d="M240.905 505.189C234.911 477.288 214.532 455.38 213.666 425.654C212.423 383.165 215.873 336.882 220.992 292.956C223.749 269.317 256.803 253.831 262.364 231.049C269.879 200.048 222.889 184.234 215.344 158.236" stroke="#B4B4B4" stroke-width="0.75" stroke-miterlimit="10"/>
<path d="M246.679 504.59C241.386 476.26 218.414 455.657 218.429 425.418C218.451 382.763 229.262 336.69 233.066 293.151C235.087 270.087 264.157 253.01 268.249 230.689C274.075 198.963 228.717 184.51 220.909 157.569" stroke="#B4B4B4" stroke-width="0.75" stroke-miterlimit="10"/>
<path d="M252.102 503.791C246.119 475.831 224.808 453.815 224.807 423.797C224.792 382.224 233.1 337.354 237.645 294.747C240.102 271.58 268.694 252.319 272.624 229.777C278.076 198.518 234.374 183.159 226.099 156.709" stroke="#B4B4B4" stroke-width="0.75" stroke-miterlimit="10"/>
<path d="M257.534 502.699C251.103 473.549 232.155 448.86 232.612 417.438C233.179 378.454 236.631 337.462 241.474 297.567C244.289 274.331 269.821 253.878 275.005 231.088C282.327 198.854 239.601 182.239 230.921 155.545" stroke="#B4B4B4" stroke-width="0.75" stroke-miterlimit="10"/>
<path d="M263.035 501.318C256.951 471.762 242.151 444.864 241.502 413.638C240.715 376.848 240.431 338.407 244.43 300.544C246.96 276.566 271.851 253.527 276.64 229.795C283.022 197.932 243.918 181.094 235.417 154.247" stroke="#B4B4B4" stroke-width="0.75" stroke-miterlimit="10"/>
<path d="M268.718 499.629C257.503 435.739 241.763 372.295 246.84 303.84C248.699 278.866 272.829 253.225 277.121 228.259C282.523 196.937 247.587 179.627 239.572 152.687" stroke="#B4B4B4" stroke-width="0.75" stroke-miterlimit="10"/>
<path d="M275.214 496.858C271.141 465.571 268.867 433.78 264.126 402.683C259.33 371.332 249.203 339.785 250.099 306.949C250.822 280.952 272.242 252.979 277.238 226.427C282.949 196.097 251.88 177.397 244.935 150.947" stroke="#B4B4B4" stroke-width="0.75" stroke-miterlimit="10"/>
<path d="M282.468 493.391C280.027 461.162 286.026 426.369 278.361 395.609C271.291 367.198 255.341 339.981 254.341 309.825C253.459 282.835 272.617 252.361 277.286 224.383C282.093 195.14 256.925 175.258 251.274 149.037" stroke="#B4B4B4" stroke-width="0.75" stroke-miterlimit="10"/>
<path d="M289.561 489.764C288.949 456.904 304.041 418.305 293.097 388.238C283.81 362.667 261.873 340.258 258.996 312.638C256.095 284.754 272.98 251.757 276.737 222.479C280.351 194.43 261.984 173.203 257.733 147.325" stroke="#B4B4B4" stroke-width="0.75" stroke-miterlimit="10"/>
<path d="M292.635 486.184C293.926 452.381 317.525 408.401 302.21 379.328C291.15 358.334 265.194 340.841 261.98 316.92C258.354 289.304 270.798 255.205 273.841 225.936C276.744 198.027 265.919 174.514 263.341 148.085" stroke="#B4B4B4" stroke-width="0.75" stroke-miterlimit="10"/>
<path d="M296.247 483.031C299.056 448.823 328.411 402.364 312.187 373.606C301.204 354.151 270.907 342.757 266.675 320.225C261.287 292.037 270.802 256.099 272.437 225.897C273.866 199.412 269.656 174.489 268.525 148.654" stroke="#B4B4B4" stroke-width="0.75" stroke-miterlimit="10"/>
<path d="M300.098 480.265C303.944 446.721 339.875 395.515 321.589 368.47C309.7 350.838 277.458 344.17 272.346 322.849C265.463 294.075 271.881 256.813 272.082 225.772C272.227 200.323 273.595 174.589 273.564 149.179" stroke="#B4B4B4" stroke-width="0.75" stroke-miterlimit="10"/>
<path d="M304.243 478.007C308.681 445.169 350.206 389.71 330.494 364.053C317.926 347.712 284.912 345.21 279.235 324.535C271.09 295.093 274.19 257.291 272.865 225.471C271.837 200.579 277.798 174.743 278.451 149.531" stroke="#B4B4B4" stroke-width="0.75" stroke-miterlimit="10"/>
<path d="M308.773 476.273C311.902 454.377 321.76 433.669 331.501 411.22C338.942 394.154 349.482 373.418 338.903 360.435C326.143 344.78 293.717 345.473 287.698 325.041C278.728 294.675 278.021 257.509 275.085 224.931C272.832 200.208 282.492 174.771 283.421 149.591" stroke="#B4B4B4" stroke-width="0.75" stroke-miterlimit="10"/>
<path d="M313.903 474.647C316.899 452.442 327.433 431.73 337.729 408.992C345.307 392.367 356.575 370.534 346.473 357.569C334.306 341.949 304.115 344.439 298.342 323.852C289.476 292.238 284.185 257.133 279.47 223.965C275.961 199.275 288.267 174.591 288.953 149.331" stroke="#B4B4B4" stroke-width="0.75" stroke-miterlimit="10"/>
<path d="M319.211 473.939C322.099 451.693 332.742 431.002 343.186 408.206C350.756 391.674 361.986 369.621 352.492 356.46C341.08 340.634 312.78 342.884 307.309 322.346C298.652 290.189 290.732 256.588 284.848 223.379C280.485 198.66 293.854 174.144 294.385 148.733" stroke="#B4B4B4" stroke-width="0.75" stroke-miterlimit="10"/>
<path d="M325.134 473.612C328.124 451.591 338.252 430.901 348.208 408.305C355.569 391.667 366.303 370.069 357.059 356.797C346.05 341.002 318.997 341.681 313.24 321.725C304.158 290.218 295.982 257.414 289.435 224.914C284.346 199.681 298.925 174.093 300.288 147.739" stroke="#B4B4B4" stroke-width="0.75" stroke-miterlimit="10"/>
<path d="M331.327 473.614C335.664 440.344 378.47 385.18 360.866 357.992C350.561 342.073 325.403 340.645 319.462 321.291C310.047 290.768 300.912 259.596 293.275 228.366C286.927 202.375 303.875 174.487 306.502 146.694" stroke="#B4B4B4" stroke-width="0.75" stroke-miterlimit="10"/>
<path d="M337.886 473.916C341.798 440.32 380.697 387.757 364.353 359.759C354.976 343.594 332.192 339.587 326.012 320.841C316.346 291.525 305.715 262.498 296.701 232.916C288.607 206.295 308.89 174.672 312.986 145.304" stroke="#B4B4B4" stroke-width="0.75" stroke-miterlimit="10"/>
<path d="M344.659 474.492C347.861 440.549 382.267 391.056 367.466 362.041C359.102 345.737 339.808 338.103 332.768 320.558C321.793 293.178 310.482 265.895 300.02 238.289C289.828 211.436 314.084 174.553 319.644 143.861" stroke="#B4B4B4" stroke-width="0.75" stroke-miterlimit="10"/>
<path d="M351.537 475.321C353.905 441.065 383.361 394.779 370.308 364.741C363.087 348.107 346.558 337.445 339.603 320.343C328.982 294.261 315.353 269.395 303.469 243.872C291.085 217.231 319.541 173.893 326.337 142.286" stroke="#B4B4B4" stroke-width="0.75" stroke-miterlimit="10"/>
<path d="M358.491 476.359C359.701 442.492 382.82 401.082 373.705 369.949C368.412 351.886 352.472 338.413 345.706 320.704C335.729 294.625 316.389 272.562 305.995 246.681C295.104 219.552 325.384 172.467 332.977 140.617" stroke="#B4B4B4" stroke-width="0.75" stroke-miterlimit="10"/>
<path d="M365.411 477.737C365.549 444.04 383.841 404.91 376.179 373.281C371.704 354.846 359.171 338.532 352.284 320.951C342.506 295.997 321.673 275.744 310.443 251.439C303.641 236.707 313.202 217.907 319.669 200.204C327.185 179.613 334.278 159.408 339.449 139.016" stroke="#B4B4B4" stroke-width="0.75" stroke-miterlimit="10"/>
<path d="M372.257 479.392C371.315 445.994 384.991 408.698 378.641 376.731C374.889 357.788 365.663 339.036 358.71 321.293C349.286 297.296 323.678 279.41 315.785 254.891C305.788 223.896 336.238 173.38 345.554 137.425" stroke="#B4B4B4" stroke-width="0.75" stroke-miterlimit="10"/>
<path d="M379.073 481.12C377.139 448.107 386.44 412.249 381.249 380.068C377.718 359.941 372.31 340.431 365.055 321.642C356.12 297.918 330.668 280.45 322.681 256.432C312.162 224.832 342.125 172.619 351.402 135.899" stroke="#B4B4B4" stroke-width="0.75" stroke-miterlimit="10"/>
<path d="M386.336 483.014C381.712 428.913 388.976 372.345 371.56 321.853C363.279 297.815 339.058 279.536 331.335 255.355C320.938 222.744 348.235 171.576 356.93 134.121" stroke="#B4B4B4" stroke-width="0.75" stroke-miterlimit="10"/>
<path d="M391.989 485.116C386.346 431.333 392.593 372.965 377.607 321.826C370.099 296.27 347.032 275.574 340.9 249.55C333.033 216.363 354.257 169.923 361.004 133.326" stroke="#B4B4B4" stroke-width="0.75" stroke-miterlimit="10"/>
<path d="M398.104 487.633C391.736 433.104 393.291 375.921 381.947 322.728C376.012 294.831 359.204 269.942 354.231 241.768C348.271 208.094 359.876 168.138 363.287 132.284" stroke="#B4B4B4" stroke-width="0.75" stroke-miterlimit="10"/>
<path d="M404.605 490.824C389.734 370.998 373.018 251.593 360.745 131.16" stroke="#B4B4B4" stroke-width="0.75" stroke-miterlimit="10"/>
</g>
</svg>
