<svg width="1189" height="595" viewBox="0 0 1189 595" fill="none" xmlns="http://www.w3.org/2000/svg">
<path d="M8.79371 432.136C51.206 375.666 111.583 337.24 175.667 308.633C239.421 280.23 306.599 260.614 372.126 236.836C435.513 213.832 497.971 185.963 550.34 142.995C575.443 122.185 598.107 98.6566 617.905 72.8537C640.96 43.1619 659.768 10.56 681.552 -20.0656C725.331 -81.7424 777.671 -137.03 837.03 -184.297C844.658 -190.364 852.381 -196.309 860.199 -202.132C860.589 -202.426 860.066 -203.002 859.716 -202.714C799.074 -157.42 744.732 -104.858 698.89 -44.8701C687.134 -29.4436 675.881 -13.6838 665.131 2.40946C654.506 18.3473 644.552 34.6136 633.574 50.2772C613.977 78.2589 591.965 104.681 566.707 127.827C516.29 174.144 454.575 204.901 390.838 229.145C325.624 253.95 258.355 273.18 193.917 300.018C130.996 326.207 69.9458 360.364 24.435 411.744C18.737 418.174 13.3349 424.846 8.17911 431.707C7.87677 432.1 8.49443 432.549 8.79677 432.156L8.79371 432.136Z" fill="#B4B4B4"/>
<path d="M4.95861 437.273C28.1928 409.295 55.8148 384.881 85.0152 363.135C114.654 341.12 146.379 321.996 179.744 306.033C213.107 290.036 248.18 277.772 283.442 266.606C319.405 255.221 356.04 245.72 391.561 233C452.954 210.97 509.071 176.582 556.357 132.015C580.372 109.282 602.299 84.3367 622.676 58.3358C645.63 28.9971 665.892 -2.22766 689.507 -31.1033C735.081 -86.8127 788.258 -135.677 845.066 -180.033C852.469 -185.813 859.905 -191.513 867.374 -197.133C867.774 -197.429 867.239 -198.014 866.89 -197.725C809.459 -154.463 754.81 -107.362 707.388 -53.3793C683.151 -25.7917 661.842 3.66684 640.441 33.4054C619.345 62.8559 596.057 90.7124 570.771 116.743C525.811 162.803 471.87 199.37 412.221 224.225C376.929 238.918 339.715 248.496 303.213 259.675C267.78 270.54 232.443 282.025 198.414 296.71C133.212 324.851 71.6532 365.575 22.4612 416.59C16.1659 423.111 10.1258 429.855 4.34095 436.824C4.02696 437.21 4.64461 437.659 4.95861 437.273Z" fill="#B4B4B4"/>
<path d="M1.12283 442.416C26.8686 414.334 56.5527 389.382 86.5917 365.872C115.474 343.263 146.084 322.134 178.839 305.276C210.902 288.769 245.301 276.975 279.883 266.854C315.788 256.307 352.71 249.087 388.295 237.462C421.413 226.64 452.396 209.57 481.052 190.025C506.045 172.939 528.92 153.183 550.15 131.742C573.476 108.161 595.462 83.1252 616.669 57.6744C640.659 28.8137 662.706 -1.57539 687.954 -29.4592C736.945 -83.4844 793.776 -129.994 851.472 -174.505C859.128 -180.439 866.816 -186.314 874.539 -192.129C874.927 -192.433 874.404 -193.009 874.054 -192.721C815.453 -148.237 757.233 -102.48 705.936 -49.7136C680.498 -23.5514 657.997 4.68486 635.444 33.2566C613.212 61.4215 589.656 88.6504 565.167 114.925C521.071 162.211 469.164 204.475 408.523 229.255C372.9 243.813 334.61 250.82 297.666 261.012C263.346 270.48 229.186 281.193 196.703 295.829C164.365 310.402 134.166 329.617 105.619 350.486C74.9238 372.832 45.81 397.229 18.4821 423.504C12.3175 429.48 6.32565 435.637 0.506703 441.976C0.167871 442.335 0.795652 442.782 1.12436 442.426L1.12283 442.416Z" fill="#B4B4B4"/>
<path d="M-2.78272 447.594C24.7073 420.487 55.0419 395.929 84.6958 371.187C113.175 347.431 142.809 323.716 175.442 305.587C206.716 288.257 240.966 276.64 275.395 267.34C292.768 262.591 310.292 258.399 327.967 254.764C346.605 250.923 365.338 247.435 383.636 242.181C417.371 232.484 447.896 214.592 475.945 193.983C499.801 176.444 521.238 156.087 541.347 134.498C564.919 109.201 587.539 82.9635 610.293 56.9922C635.872 27.8196 660.156 -2.43677 687.866 -29.7306C739.944 -81.039 799.515 -124.533 857.651 -168.742C865.694 -174.851 873.713 -180.967 881.705 -187.089C882.106 -187.385 881.621 -187.977 881.231 -187.683C822.156 -142.503 761.363 -98.8033 706.56 -48.5161C679.308 -23.5128 655.089 3.78548 631.138 31.8212C607.188 59.857 582.419 87.6173 557.787 115.265C537.454 138.096 516.411 160.42 492.75 179.916C466.583 201.52 436.822 221.764 405.022 234.229C369.426 248.158 330.744 252.604 293.817 261.75C260.041 270.101 226.437 280.249 194.86 294.922C162.529 309.945 133.431 331.071 105.687 353.129C75.6247 377.032 46.2191 402.043 17.5726 427.616C10.4877 433.918 3.52857 440.365 -3.22179 447.026C-3.56368 447.364 -3.07956 447.956 -2.73767 447.618L-2.78272 447.594Z" fill="#B4B4B4"/>
<path d="M-6.61516 452.761C7.90818 439.826 23.0865 427.653 38.0808 415.293C53.6401 402.427 68.764 389.085 83.8194 375.702C111.659 351.019 139.764 325.088 171.933 305.955C202.182 287.951 236.212 276.52 270.241 267.864C287.191 263.551 304.24 259.888 321.488 256.984C340.39 253.788 359.452 251.367 378.117 246.886C442.586 231.365 493.546 183.174 535.41 134.639C558.293 108.157 580.705 81.4386 604.333 55.632C630.746 26.7633 656.681 -2.58594 686.083 -28.5694C713.367 -52.6869 742.723 -74.364 772.132 -95.834C802.876 -118.325 833.862 -140.515 864.35 -163.397C872.551 -169.557 880.73 -175.789 888.889 -182.093C888.953 -182.161 888.991 -182.25 888.994 -182.343C888.998 -182.435 888.967 -182.526 888.908 -182.599C888.849 -182.671 888.766 -182.719 888.673 -182.735C888.581 -182.751 888.485 -182.734 888.405 -182.686C857.101 -158.574 825.133 -135.346 793.166 -112.117C763.649 -90.6819 733.955 -69.3838 705.74 -46.2721C676.795 -22.5892 651.079 3.65589 625.809 31.1234C600.539 58.5909 575.46 86.224 551.345 114.745C531.555 138.149 511.691 161.616 488.865 182.234C476.927 193.05 464.251 203.042 450.927 212.139C434.894 223.059 418.164 233.215 399.795 239.76C364.088 252.488 325.287 254.526 288.424 262.74C254.931 270.23 221.541 280.018 190.644 295.07C158.566 310.596 130.938 333.548 104.269 356.681C89.7003 369.315 75.3825 382.239 60.8629 394.927C45.7308 408.148 30.0695 420.752 14.6084 433.582C7.25236 439.67 -0.000273607 445.823 -7.11095 452.16C-7.47462 452.491 -6.97022 453.08 -6.6268 452.752L-6.61516 452.761Z" fill="#B4B4B4"/>
<path d="M-10.4508 457.896C4.45684 445.917 19.799 434.476 34.7299 422.514C50.6493 409.768 65.8003 396.197 80.6557 382.25C107.444 357.123 133.374 329.637 164.067 309.048C193.417 289.368 228.043 277.97 262.173 269.503C278.78 265.385 295.606 261.818 312.511 259.047C331.578 255.908 350.907 254.624 369.958 251.385C388.78 248.14 407.282 242.732 423.827 233.065C438.881 224.212 453.153 214.116 466.488 202.886C489.969 183.224 509.781 160.031 528.792 136.141C550.931 108.317 573.16 80.8081 597.601 54.899C624.952 25.9296 652.696 -2.83333 684.061 -27.6293C712.995 -50.5118 744.112 -70.4898 774.762 -91.0215C807.362 -112.821 839.777 -134.888 871.258 -158.248C879.606 -164.438 887.883 -170.715 896.087 -177.081C896.477 -177.375 895.952 -177.961 895.604 -177.663C863.655 -152.891 830.599 -129.601 797.104 -106.95C766.467 -86.2663 735.27 -66.3992 705.374 -44.7326C673.986 -21.9806 646.079 3.81782 619.072 31.4455C592.908 58.2089 567.82 85.7204 544.533 114.976C525.067 139.417 506.121 164.413 483.644 186.299C471.714 197.912 458.878 208.578 445.254 218.197C428.424 230.067 410.967 240.281 390.968 245.854C372.206 251.117 352.757 253.044 333.462 255.357C315.751 257.472 298.247 260.599 280.806 264.342C247.444 271.536 213.949 280.981 183.563 296.662C152.156 312.855 126.348 337.814 100.999 361.854C86.5271 375.599 72.069 389.435 57.1167 402.679C42.1643 415.924 26.4645 428.074 10.7172 440.251C3.46445 445.862 -3.78522 451.493 -10.9441 457.243C-10.9829 457.275 -11.015 457.313 -11.0386 457.357C-11.0623 457.401 -11.077 457.449 -11.082 457.498C-11.087 457.547 -11.0821 457.597 -11.0676 457.644C-11.0532 457.691 -11.0294 457.735 -10.9977 457.774C-10.966 457.812 -10.927 457.843 -10.8829 457.867C-10.8388 457.89 -10.7905 457.905 -10.7407 457.909C-10.6909 457.914 -10.6406 457.909 -10.5927 457.895C-10.5448 457.881 -10.5002 457.857 -10.4615 457.826L-10.4508 457.896Z" fill="#B4B4B4"/>
<path d="M-14.2838 463.04C1.31871 451.745 17.1555 440.762 32.3584 428.953C48.6898 416.118 64.2213 402.317 78.8678 387.628C105.001 361.74 129.137 332.55 158.925 310.582C187.688 289.363 222.88 277.266 257.465 269.191C273.833 265.391 290.399 262.49 307.089 260.501C326.417 258.193 346.049 257.876 365.346 255.368C384.643 252.86 403.514 247.969 420.384 238.253C435.958 229.347 450.503 218.109 463.802 206.179C486.956 185.398 505.676 160.754 523.877 135.767C545.287 106.427 567.292 78.1324 592.656 52.0225C620.309 23.5396 649.15 -4.00729 681.719 -26.9584C712.573 -48.7289 745.768 -67.0452 777.998 -86.7306C812.229 -107.619 845.835 -129.407 878.138 -153.085C886.581 -159.289 894.936 -165.616 903.203 -172.066C903.268 -172.134 903.305 -172.223 903.309 -172.316C903.312 -172.408 903.282 -172.499 903.223 -172.572C903.164 -172.644 903.08 -172.692 902.988 -172.708C902.895 -172.724 902.8 -172.707 902.719 -172.659C870.121 -147.257 835.952 -123.859 800.936 -101.807C769.226 -81.8419 736.503 -63.4844 704.902 -43.3514C688.545 -33.024 672.771 -21.8189 657.651 -9.78652C641.97 2.82115 627.503 16.5965 613.115 30.5543C586.277 56.6414 561.218 84.0668 538.917 114.013C520.227 139.063 502.776 165.092 481.294 188.005C455.715 215.345 423.65 241.66 386.462 250.732C367.599 255.334 348.148 256.361 328.856 257.752C311.13 258.989 293.49 261.245 276.026 264.511C242.288 270.872 208.409 280.651 178.299 297.324C147.164 314.551 122.889 341.408 98.4444 366.621C84.291 381.229 69.9977 395.736 54.8077 409.323C39.7903 422.752 23.6469 434.846 7.28798 446.614C-0.064309 451.913 -7.44755 457.144 -14.7882 462.451C-15.1798 462.735 -14.7058 463.329 -14.3041 463.043L-14.2838 463.04Z" fill="#B4B4B4"/>
<path d="M-18.1169 468.175C-1.83517 457.595 14.483 447.052 29.9955 435.37C46.2438 422.978 61.4759 409.335 75.549 394.569C101.677 367.494 124.323 336.011 153.749 312.214C181.158 290.064 216.095 277.728 250.183 269.923C266.836 266.128 283.717 263.388 300.72 261.72C319.795 259.859 338.964 260.308 358.064 258.946C377.164 257.583 396.398 254.051 413.646 245.322C430.366 236.867 445.593 224.399 459.187 211.688C482.569 189.829 500.521 163.611 518.063 137.158C538.402 106.505 559.915 77.364 585.868 51.0422C614.105 22.4505 644.32 -4.51578 678.453 -25.9734C711.986 -47.0945 748.094 -63.8346 782.681 -83.1395C817.688 -102.682 851.828 -123.823 884.283 -147.32C893.105 -153.711 901.8 -160.273 910.369 -167.008C910.434 -167.076 910.471 -167.164 910.475 -167.257C910.478 -167.35 910.448 -167.441 910.389 -167.513C910.33 -167.586 910.246 -167.634 910.154 -167.65C910.061 -167.666 909.966 -167.648 909.885 -167.6C876.092 -141.284 840.498 -117.313 803.359 -95.8577C769.924 -76.338 735.094 -59.4328 701.36 -40.5128C684.372 -31.0805 668.002 -20.598 652.347 -9.12799C636.386 2.67219 621.602 15.9324 607.105 29.4461C579.232 55.4031 554.036 83.3508 532.35 114.617C514.132 140.916 497.731 168.537 476.539 192.665C450.926 221.883 418.422 248.786 379.031 255.704C359.978 259.066 340.579 258.877 321.319 259.598C303.889 260.296 286.527 262.189 269.358 265.263C235.703 271.222 201.713 281.08 172.204 298.573C141.936 316.519 119.582 344.835 96.5487 370.674C82.7744 386.136 68.6241 401.307 53.2487 415.24C38.1192 428.952 21.5556 441.007 4.58816 452.386C-3.08833 457.529 -10.8556 462.552 -18.6112 467.584C-19.0159 467.85 -18.5318 468.442 -18.127 468.176L-18.1169 468.175Z" fill="#B4B4B4"/>
<path d="M-22.0377 473.364C-5.58979 463.804 10.7287 454.007 26.1268 442.865C42.8574 430.646 58.3358 416.833 72.3386 401.626C98.2183 373.81 119.013 341.052 147.185 315.295C172.988 291.647 207.886 278.714 241.576 270.887C258.353 266.999 275.391 264.32 292.557 262.872C311.982 261.204 331.314 262.243 350.746 261.967C369.856 261.688 389.128 259.624 406.833 252.054C424.887 244.328 440.789 230.991 454.773 217.514C478.571 194.579 495.7 166.776 512.575 138.735C531.95 106.519 552.935 76.2287 579.656 49.4427C609.302 19.7679 641.771 -7.29349 678.721 -27.539C713.648 -46.6496 750.986 -61.037 786.54 -79.1675C822.8 -97.4471 857.615 -118.408 890.688 -141.87C899.801 -148.386 908.746 -155.123 917.523 -162.081C917.588 -162.148 917.625 -162.237 917.629 -162.33C917.632 -162.423 917.602 -162.514 917.543 -162.586C917.484 -162.658 917.4 -162.707 917.307 -162.723C917.215 -162.739 917.12 -162.721 917.039 -162.673C882.919 -135.879 846.534 -112.038 808.285 -91.4123C773.682 -72.6169 737.483 -57.419 702.047 -40.3505C683.933 -31.7647 666.455 -21.9214 649.745 -10.8945C632.749 0.499236 617.072 13.751 601.875 27.3603C573.231 53.0142 547.963 81.239 527.227 113.498C509.33 141.294 494.087 170.859 473.012 196.566C461.249 210.896 447.84 223.827 433.057 235.098C415.227 248.696 396.029 257.137 373.579 259.825C353.308 262.265 332.898 260.744 312.56 261.055C295.873 261.414 279.235 263.027 262.791 265.878C229.868 271.408 196.549 281.124 168.032 298.733C137.678 317.469 116.868 347.62 94.7005 374.649C81.5177 390.728 67.7288 406.366 52.4246 420.494C37.4207 434.35 20.693 446.348 3.36255 457.25C-5.0868 462.622 -13.6924 467.649 -22.3503 472.674C-22.7697 472.912 -22.4556 473.611 -22.0377 473.364Z" fill="#B4B4B4"/>
<path d="M-25.8737 478.498C-8.52752 469.529 8.53451 459.988 24.4748 448.734C41.3372 436.731 56.75 422.853 70.4089 407.373C96.0568 378.651 115.087 344.316 142.298 317.005C167.433 291.708 203.382 278.329 237.763 270.684C254.725 266.922 271.961 264.501 289.307 263.444C308.662 262.258 327.832 263.997 347.164 264.565C366.248 265.129 385.653 264.007 403.581 256.946C422.29 249.572 438.331 235.794 452.296 221.716C475.812 198.015 491.723 169.229 507.435 140.218C515.996 124.397 524.793 108.695 534.924 93.7941C546.613 76.7474 559.948 60.8602 574.739 46.3565C604.884 16.6267 638.562 -9.70645 676.96 -28.0723C713.889 -45.7453 753.208 -57.8116 790.413 -75.0349C828.072 -92.3434 864.044 -113.041 897.874 -136.866C906.996 -143.33 915.93 -150.048 924.676 -157.021C924.741 -157.089 924.778 -157.177 924.782 -157.27C924.785 -157.363 924.755 -157.454 924.696 -157.526C924.637 -157.599 924.553 -157.647 924.461 -157.663C924.368 -157.679 924.273 -157.661 924.192 -157.613C889.727 -130.379 852.541 -106.694 813.216 -86.9279C776.88 -68.4949 738.751 -55.0116 701.131 -39.5579C682.074 -31.9201 663.668 -22.7767 646.092 -12.2166C628.637 -1.52124 612.547 11.3939 597.094 24.7552C567.295 50.5121 541.736 79.4769 521.67 113.272C504.718 141.826 491.087 172.386 470.941 199.018C459.385 214.274 445.875 227.985 430.751 239.807C413.364 253.723 392.058 261.99 369.754 263.473C349.414 264.982 329.108 262.453 308.773 262.17C292.339 262.054 275.92 263.277 259.684 265.824C225.99 270.919 191.611 280.743 162.912 299.465C132.923 319.037 113.897 350.689 92.8145 378.649C80.031 395.579 66.3736 411.873 50.8455 426.433C35.1019 441.21 17.2141 453.547 -1.47074 464.398C-9.57654 469.104 -17.8497 473.528 -26.1716 477.837C-26.6128 478.068 -26.3002 478.757 -25.8691 478.528L-25.8737 478.498Z" fill="#B4B4B4"/>
<path d="M-29.6962 483.642C-11.7503 475.411 5.79418 466.248 22.0945 455.113C39.5256 443.088 55.2635 428.825 68.8933 412.7C93.7606 383.615 111.068 349.049 136.193 320.232C159.691 293.299 195.766 279.123 229.99 271.328C247.297 267.404 264.917 264.99 282.646 264.114C301.9 263.148 320.779 265.156 339.932 266.713C359.471 268.294 379.505 268.643 398.319 262.43C418.14 255.892 434.547 241.936 448.78 227.234C472.565 202.724 487.559 172.818 502.212 142.574C510.224 126.007 518.485 109.577 528.36 94.0191C539.345 76.7955 552.219 60.8215 566.748 46.3879C597.176 16.0011 632.332 -10.5555 672.135 -27.5166C711.22 -44.1642 752.938 -53.686 792.173 -70.0287C831.58 -86.3349 869.083 -106.826 904.022 -131.142C913.528 -137.8 922.805 -144.757 931.854 -152.015C931.927 -152.079 931.973 -152.168 931.982 -152.264C931.99 -152.36 931.961 -152.456 931.9 -152.531C931.839 -152.606 931.751 -152.655 931.655 -152.668C931.558 -152.68 931.46 -152.656 931.381 -152.599C896.226 -124.646 857.849 -100.906 817.055 -81.8777C798.358 -73.0628 779.204 -65.2326 759.672 -58.4201C739.329 -51.3724 718.641 -45.3578 698.313 -38.3433C677.472 -31.2561 657.347 -22.2498 638.204 -11.4433C621.051 -1.68423 605.209 11.0911 590.216 23.7994C560.105 49.3474 535.06 78.6236 516.212 113.207C499.772 143.414 487.472 175.902 467.256 203.977C455.725 219.949 441.944 234.211 426.332 246.331C407.569 260.94 385.414 266.91 361.794 266.96C341.715 266.996 321.907 263.521 301.831 263.035C285.308 262.724 268.785 263.828 252.45 266.335C218.634 271.376 183.889 281.584 155.863 301.596C126.91 322.25 109.901 355.378 90.0234 383.832C77.9239 401.17 64.655 417.702 49.2606 432.324C33.1895 447.601 14.6092 460.084 -4.9706 470.568C-13.183 474.983 -21.572 479.056 -30.0118 482.932C-30.0967 482.979 -30.1609 483.056 -30.1917 483.147C-30.2225 483.238 -30.2178 483.337 -30.1784 483.425C-30.139 483.513 -30.0679 483.582 -29.9789 483.621C-29.89 483.659 -29.7897 483.663 -29.6977 483.632L-29.6962 483.642Z" fill="#B4B4B4"/>
<path d="M-33.5324 488.777C5.76035 472.947 40.6864 450.643 67.5748 417.772C92.0114 387.902 107.558 352.19 131.549 322.111C154.139 293.717 190.781 278.975 225.471 271.253C242.982 267.364 260.823 265.122 278.756 264.558C298.281 263.878 317.209 266.473 336.494 268.829C355.988 271.205 376.083 272.558 395.195 267.007C415.507 261.11 431.848 247.257 446.083 232.237C470.586 206.39 484.627 174.581 498.469 142.422C505.74 125.548 513.348 108.777 522.818 92.9419C533.525 75.0431 546.46 58.5398 561.32 43.8194C592.291 12.9921 628.714 -13.3464 670.075 -28.5162C711.269 -43.6299 754.946 -50.4997 796.082 -65.9936C836.547 -81.1269 874.961 -101.171 910.441 -125.664C920.239 -132.448 929.769 -139.577 939.033 -147.051C939.098 -147.119 939.135 -147.208 939.139 -147.301C939.143 -147.394 939.112 -147.484 939.053 -147.557C938.994 -147.629 938.91 -147.677 938.818 -147.693C938.725 -147.709 938.63 -147.692 938.549 -147.644C902.585 -118.833 862.857 -94.9521 820.442 -76.6479C801.455 -68.3727 781.975 -61.2565 762.11 -55.3396C740.306 -48.9004 718.139 -44.0236 696.316 -37.776C674.891 -31.6397 653.824 -23.9708 634.2 -13.3673C616.557 -3.83095 600.074 8.81607 584.715 21.5695C554.207 46.8909 529.355 76.4143 511.653 111.848C495.777 143.515 485.048 177.742 465.136 207.327C453.874 224.067 440.008 238.947 424.052 251.414C405.25 266.039 382.506 271.003 359.013 270.123C338.588 269.249 318.581 264.812 298.281 263.878C281.451 263.159 264.586 263.995 247.907 266.376C214.061 271.084 179.086 281.347 151.471 301.942C122.321 323.68 106.937 358.763 87.7586 388.473C76.1924 406.386 63.169 423.372 47.7172 438.228C31.7252 453.615 12.9857 465.938 -6.85282 475.95C-15.6576 480.352 -24.6755 484.377 -33.8178 488.062C-34.2768 488.244 -33.9641 488.934 -33.5051 488.752L-33.5324 488.777Z" fill="#B4B4B4"/>
<path d="M-37.3726 493.913C3.15121 479.699 39.0296 457.322 65.6947 423.532C90.1913 392.497 104.01 355.101 127.335 323.382C148.996 293.922 185.906 278.698 220.781 271.102C238.801 267.164 257.18 265.071 275.626 264.857C294.714 264.632 313.153 267.557 331.914 270.617C352.101 273.932 373.125 276.486 393.267 271.168C413.728 265.771 429.921 252.032 443.961 236.888C469.029 209.727 481.953 176.234 494.842 142.377C501.299 125.401 508.169 108.546 516.98 92.596C527.565 73.4834 540.867 55.9659 556.479 40.5793C587.832 9.54071 625.346 -16.4306 667.843 -29.7348C689.916 -36.6448 712.74 -40.6176 735.4 -45.1799C757.247 -49.5067 778.829 -54.7556 799.938 -61.878C841.735 -75.9753 881.348 -95.7671 917.63 -120.681C927.427 -127.423 936.939 -134.536 946.168 -142.019C946.555 -142.333 946.03 -142.919 945.694 -142.613C909.358 -113.311 868.807 -89.5314 825.385 -72.062C805.037 -63.8072 784.103 -57.0494 762.753 -51.8439C740.319 -46.4048 717.521 -42.8145 694.988 -37.688C672.786 -32.6319 650.152 -26.0672 630.038 -15.3486C612.201 -5.86478 595.507 6.01559 579.887 18.6857C564.064 31.5195 549.111 45.7061 536.468 61.6623C524.312 77.0025 514.54 94.05 506.49 111.789C491.687 144.369 482.66 179.505 463.445 210.059C452.398 227.638 438.177 243.904 421.46 256.515C401.962 271.266 378.29 274.968 354.342 272.805C333.876 270.985 313.898 265.724 293.352 264.47C276.512 263.497 259.613 264.149 242.895 266.417C208.841 270.921 173.419 281.374 146.192 302.883C117.545 325.538 103.919 361.963 85.8001 392.434C74.6504 411.174 61.7498 428.827 46.0569 444.139C29.7187 460.04 10.2721 472.48 -10.4078 482.138C-19.32 486.271 -28.4362 489.959 -37.7217 493.187C-38.1939 493.351 -37.8813 494.041 -37.4091 493.877L-37.3726 493.913Z" fill="#B4B4B4"/>
<path d="M-41.1996 499.05C0.792115 486.375 37.864 463.675 64.3769 428.618C88.5014 396.707 100.629 358.277 122.76 325.255C143.315 294.59 180.424 278.773 215.545 271.088C234.013 267.051 252.873 265.051 271.78 265.125C290.694 265.193 308.823 268.389 327.288 272.087C347.453 276.204 368.445 279.971 388.961 275.743C410.047 271.388 426.497 258.183 440.732 242.754C466.306 215.036 478.536 180.736 490.118 145.715C496.065 127.772 502.335 109.903 510.893 92.9774C520.861 73.2947 533.896 55.2781 549.519 39.5878C565.072 24.0579 582.235 10.1882 600.722 -1.79172C620.531 -14.9895 642.405 -24.8617 665.459 -31.0088C688.301 -37.0316 711.762 -39.811 735.126 -43.1592C757.618 -46.3858 779.857 -50.5876 801.647 -57.0453C845.443 -70.0618 886.919 -89.776 924.566 -115.471C934.457 -122.228 944.048 -129.394 953.338 -136.968C953.403 -137.035 953.44 -137.124 953.444 -137.217C953.447 -137.31 953.417 -137.401 953.358 -137.473C953.299 -137.545 953.215 -137.594 953.122 -137.61C953.03 -137.626 952.934 -137.608 952.854 -137.56C915.573 -107.335 873.505 -83.4036 828.351 -66.7334C807.169 -58.8448 785.355 -52.7385 763.14 -48.4798C739.744 -44.0519 716.017 -41.7237 692.572 -37.616C669.733 -33.6102 645.95 -27.9875 625.257 -17.2017C606.691 -7.39805 589.155 4.20674 572.909 17.441C556.689 30.5908 541.371 45.3035 528.937 62.1494C517.295 77.8725 508.183 95.24 500.899 113.314C487.188 147.284 479.654 183.843 460.349 215.506C449.291 233.557 434.477 251.295 416.71 263.276C396.803 276.697 373.276 278.575 350.024 275.406C329.925 272.671 310.391 266.852 290.192 265.156C273.185 263.807 256.08 264.201 239.149 266.332C204.392 270.563 167.897 281.322 140.794 304.184C112.986 327.654 101.189 364.857 84.367 395.817C73.4527 415.893 60.3721 434.741 43.8988 450.775C27.4255 466.809 7.42244 479.2 -13.7916 488.345C-22.8205 492.206 -32.0652 495.552 -41.4803 498.366C-41.9556 498.509 -41.643 499.199 -41.1677 499.056L-41.1996 499.05Z" fill="#B4B4B4"/>
<path d="M-45.1209 504.216C-2.30863 493.249 35.7289 470.699 62.023 435.092C86.312 402.225 96.8376 362.532 117.792 327.907C137.444 295.403 174.973 278.673 211.041 270.886C229.73 266.859 248.827 265.002 267.943 265.354C287.158 265.693 305.435 269.318 324.045 273.762C344.171 278.571 365.154 283.362 385.931 279.965C407.851 276.385 424.782 263.076 439.178 247.07C465.225 218.185 476.287 182.404 486.719 145.96C491.98 127.598 497.615 109.303 505.738 91.9009C515.129 71.7994 527.896 53.4107 543.497 37.5163C559.302 21.5818 576.913 7.50133 595.979 -4.44544C605.179 -10.338 614.746 -15.6514 624.621 -20.3538C636.593 -25.9924 649.758 -29.5899 662.655 -32.4304C686.565 -37.6935 711.025 -39.2216 735.349 -41.3739C759.308 -43.5426 782.987 -46.9283 806.248 -53.117C850.454 -64.8954 892.363 -83.9134 930.233 -109.38C940.709 -116.424 950.826 -123.942 960.584 -131.934C960.961 -132.247 960.446 -132.835 960.1 -132.527C922.173 -101.624 878.949 -77.7004 832.49 -61.8958C810.468 -54.3329 787.775 -48.8454 764.715 -45.5067C740.626 -42.0898 716.294 -41.0726 692.152 -38.1391C668.762 -35.2988 644.237 -30.7411 622.872 -20.4168C603.895 -11.1093 585.995 0.208969 569.487 13.3385C552.713 26.5209 536.946 41.4857 524.388 58.7394C512.574 74.9595 503.602 92.9712 496.741 111.718C484.14 146.166 478.369 183.082 460.6 215.578C450.006 234.971 435.058 253.866 416.756 266.675C396.656 280.739 372.56 282.212 349.006 278.29C328.611 274.904 308.884 268.162 288.293 265.87C271.183 264.047 253.919 264.093 236.813 266.006C201.703 269.769 164.608 280.393 137.425 303.677C109.031 327.993 98.8118 366.841 82.7802 399.043C72.8313 419.065 60.6499 437.9 44.9564 454.021C28.3323 471.101 7.93698 484.043 -14.1155 493.191C-24.2268 497.351 -34.6271 500.785 -45.2356 503.465C-45.7139 503.589 -45.5992 504.339 -45.1209 504.216Z" fill="#B4B4B4"/>
<path d="M-48.9681 509.353C-4.51738 499.889 35.0212 476.724 61.2076 439.464C85.0339 405.602 93.7429 364.935 113.743 329.154C132.656 295.267 171.178 277.988 207.916 270.376C226.913 266.437 246.324 264.816 265.712 265.548C285.382 266.29 303.882 270.628 322.787 275.785C342.359 281.169 362.862 286.545 383.448 283.934C405.945 281.075 423.206 267.758 437.76 251.298C464.183 221.414 474.132 184.316 483.284 146.684C488.073 127.053 493.291 107.459 501.488 88.9199C510.595 68.3879 523.399 49.6568 539.276 33.6404C555.839 17.0723 574.463 2.6505 594.699 -9.27785C603.736 -14.7168 613.128 -19.5566 622.813 -23.7652C634.974 -28.982 648.296 -32.0199 661.314 -34.2747C686.015 -38.5621 711.118 -38.7337 736.088 -39.7758C760.793 -40.788 785.151 -43.1911 809.228 -48.7866C854.979 -59.4673 898.389 -78.3111 937.322 -104.391C947.798 -111.435 957.896 -118.943 967.615 -126.917C967.693 -126.98 967.743 -127.071 967.753 -127.171C967.763 -127.27 967.733 -127.37 967.669 -127.447C967.605 -127.524 967.512 -127.573 967.412 -127.583C967.311 -127.592 967.211 -127.562 967.133 -127.499C928.367 -95.7362 883.743 -71.7103 835.739 -56.7564C813.539 -49.7658 790.679 -45.0303 767.515 -42.6232C742.378 -40.1022 717.097 -40.4156 691.907 -38.6442C667.56 -36.9183 642.083 -33.3633 619.682 -23.2407C600.575 -14.4731 582.55 -3.55903 565.965 9.28535C548.754 22.462 532.52 37.6203 519.826 55.2733C507.75 72.0857 498.918 90.8748 492.481 110.428C480.614 146.494 476.513 185.052 458.852 219.128C448.462 239.248 433.006 259.499 413.727 272.016C393.429 285.322 369.499 285.582 346.459 280.887C326.294 276.77 306.875 269.469 286.433 266.592C268.88 264.252 251.105 263.974 233.479 265.763C198.088 269.169 160.476 279.872 133.408 303.711C104.888 328.886 96.2605 368.936 81.2107 402.208C71.9175 422.725 60.2586 442.065 44.7174 458.572C27.5281 476.833 5.95169 490.383 -17.5156 499.357C-27.7524 503.253 -38.2842 506.341 -49.012 508.592C-49.4979 508.665 -49.3786 509.446 -48.8972 509.342L-48.9681 509.353Z" fill="#B4B4B4"/>
<path d="M-52.7972 514.532C-6.74301 506.545 34.3634 482.795 60.3536 443.845C83.6127 408.984 90.6109 367.357 109.563 330.547C127.646 295.434 166.724 277.59 204.104 270.044C223.548 266.121 243.419 264.696 263.223 265.805C283.142 266.888 301.76 271.863 320.736 277.685C340.157 283.644 360.467 289.725 381.053 287.852C404.027 285.75 421.682 272.496 436.328 255.694C462.98 224.998 471.93 187.059 479.802 148.443C483.954 128.171 488.405 107.894 496.203 88.6374C504.661 67.5538 517.167 48.2817 533.03 31.8856C549.966 14.6601 569.227 -0.171328 590.265 -12.187C599.718 -17.7049 609.55 -22.5607 619.688 -26.7187C632.435 -31.8911 646.457 -34.5536 660.068 -36.3146C685.87 -39.6423 711.893 -38.4687 737.811 -38.3233C762.362 -38.176 786.718 -39.5756 810.853 -44.2484C858.239 -53.61 903.309 -72.116 943.483 -98.7067C954.343 -105.873 964.81 -113.606 974.838 -121.873C975.215 -122.186 974.701 -122.774 974.354 -122.466C934.404 -89.5789 887.912 -65.3646 837.903 -51.3989C814.584 -44.8154 790.594 -40.8449 766.387 -39.5625C741.191 -38.3021 715.987 -39.8759 690.817 -39.2642C665.845 -38.6416 639.726 -36.0337 616.544 -26.2126C596.542 -17.5453 577.709 -6.44467 560.482 6.8317C542.763 20.1364 526.355 35.6486 513.873 53.8736C502.061 71.1272 493.727 90.3322 487.947 110.318C477.102 147.786 474.679 187.769 457.087 223.176C447.028 243.43 431.754 264.053 412.398 276.407C391.639 289.68 367.16 288.99 343.957 283.428C324 278.645 304.845 270.701 284.525 267.334C266.631 264.49 248.442 263.88 230.385 265.518C194.259 268.595 155.501 279.45 128.459 304.545C100.029 330.924 93.1688 372.57 78.8979 406.871C70.1576 427.888 58.7239 447.685 43.1142 464.489C25.8164 483.125 3.78543 496.682 -20.1891 505.251C-30.808 509.019 -41.738 511.864 -52.8543 513.752C-52.9421 513.78 -53.017 513.838 -53.0656 513.916C-53.1141 513.994 -53.1332 514.086 -53.1195 514.176C-53.1057 514.266 -53.0599 514.349 -52.9903 514.408C-52.9207 514.468 -52.8318 514.502 -52.7396 514.503L-52.7972 514.532Z" fill="#B4B4B4"/>
<path d="M-56.6318 519.633C-9.64571 513.338 32.6949 489.463 58.5242 449.596C81.9925 413.392 87.1958 370.256 105.43 331.865C122.785 295.306 162.848 276.863 201.05 269.48C220.943 265.63 241.268 264.465 261.469 266.016C281.575 267.583 300.173 273.165 319.15 279.611C339.017 286.384 360.022 293.352 381.385 291.412C404.331 289.325 421.834 275.695 436.114 258.662C463.187 226.387 470.414 186.527 477.126 146.418C480.649 125.289 484.722 104.159 492.597 84.1229C501.101 62.4231 514.053 42.6896 530.638 26.1639C548.16 8.85659 568.139 -5.83419 589.943 -17.4437C599.395 -22.6245 609.234 -27.0793 619.374 -30.7687C632.391 -35.3983 646.664 -37.3719 660.403 -38.4972C687.003 -40.666 713.659 -38.0628 740.243 -36.7487C764.925 -35.5362 789.466 -36.0015 813.9 -40.0029C862.277 -47.9107 908.977 -66.5083 949.881 -93.2071C961.031 -100.499 971.752 -108.412 981.994 -116.908C982.058 -116.976 982.096 -117.064 982.099 -117.157C982.103 -117.25 982.072 -117.341 982.013 -117.413C981.954 -117.486 981.871 -117.534 981.778 -117.55C981.686 -117.566 981.59 -117.548 981.51 -117.5C940.689 -83.7069 892.716 -59.4119 841.146 -46.4153C817.108 -40.3072 792.419 -37.0797 767.612 -36.8022C741.701 -36.5597 715.885 -39.4947 689.984 -40.001C665.435 -40.4761 639.356 -39.1641 616.222 -30.3842C595.574 -22.5535 576.134 -11.3533 558.375 1.61971C540.391 14.7495 523.509 30.2105 510.744 48.4168C498.208 66.3532 489.744 86.6016 484.198 107.647C474.077 146.255 473.463 187.295 456.91 224.152C447.178 245.728 431.5 267.979 411.003 280.731C389.665 294.009 364.8 292.282 341.495 285.855C321.758 280.404 302.851 271.921 282.671 268.041C264.65 264.722 246.261 263.764 227.979 265.193C191.285 267.803 151.631 278.63 124.443 304.392C95.7146 331.665 90.4317 374.619 77.1208 409.983C68.8362 432.016 57.5531 452.865 41.4565 470.346C23.992 489.314 1.59348 502.907 -22.9156 511.096C-33.9225 514.733 -45.2534 517.323 -56.7542 518.833C-56.842 518.861 -56.9169 518.919 -56.9655 518.997C-57.014 519.075 -57.0331 519.167 -57.0194 519.257C-57.0056 519.347 -56.9598 519.429 -56.8902 519.489C-56.8206 519.549 -56.7318 519.582 -56.6395 519.583L-56.6318 519.633Z" fill="#B4B4B4"/>
<path d="M-60.4673 524.77C-11.9363 520.043 32.0167 495.535 57.6218 453.931C80.8591 416.217 83.9313 371.54 101.91 331.816C118.8 294.457 160.011 275.86 198.591 268.85C218.353 265.243 238.519 264.343 258.519 266.177C279.391 268.14 298.435 274.474 317.936 281.701C337.437 288.927 357.906 296.387 379.046 295.228C402.742 293.918 420.828 280.097 435.301 262.431C462.657 229.028 468.613 187.968 474.077 146.738C476.962 124.958 480.367 103.12 487.924 82.364C496.027 60.0475 508.976 39.7486 525.859 22.8959C543.515 5.4757 563.745 -9.19127 585.855 -20.6011C595.611 -25.7701 605.767 -30.1638 616.226 -33.7407C629.29 -38.1317 643.477 -39.7137 657.199 -40.4064C683.996 -41.7655 710.631 -38.1458 737.229 -35.585C763.324 -33.0608 789.331 -32.2019 815.397 -35.5594C865.664 -42.0743 914.46 -60.5178 956.817 -88.0096C968.068 -95.3166 978.87 -103.277 989.168 -111.849C989.545 -112.162 989.03 -112.749 988.684 -112.441C946.63 -77.4848 896.695 -53.0422 843.105 -41.1819C817.978 -35.5628 792.223 -33.2036 766.491 -34.164C740.173 -35.3032 714.133 -39.3611 687.868 -40.8974C663.331 -42.306 637.186 -41.9052 613.769 -33.6865C592.209 -26.1274 571.905 -14.7556 553.443 -1.43069C534.981 11.8942 517.938 27.5228 505.329 46.2687C493.378 64.0347 485.444 83.9572 480.498 104.656C470.76 145.366 472.246 188.556 455.556 227.563C445.992 249.902 429.798 273.52 408.199 285.906C386.868 298.15 362.383 295.382 339.813 288.476C319.97 282.406 301.07 273.215 280.727 268.747C262.763 264.998 244.362 263.692 226.032 264.865C188.583 266.944 147.732 277.727 120.313 304.486C91.3922 332.669 87.6815 376.828 75.3605 413.179C67.6453 435.955 56.7113 457.529 40.498 475.601C22.6487 495.508 -0.77928 509.481 -26.4006 517.306C-37.5431 520.673 -48.9981 522.922 -60.5921 524.022C-61.0781 524.095 -60.9664 524.825 -60.4774 524.772L-60.4673 524.77Z" fill="#B4B4B4"/>
<path d="M-64.301 529.914C-14.3061 526.768 31.3838 501.628 56.6746 458.239C79.2992 419.43 80.692 373.932 97.7209 333.144C113.91 294.386 156.085 275.183 195.538 268.328C215.755 264.8 236.375 264.161 256.766 266.431C277.394 268.768 296.107 275.51 315.261 283.179C334.997 291.128 355.863 299.561 377.587 298.897C401.692 298.16 420.13 284.204 434.621 266.115C462.451 231.34 466.974 188.768 471.187 146.201C473.397 123.868 476.202 101.425 483.471 80.0675C491.404 56.6792 504.8 35.4593 522.572 18.1301C540.748 0.57833 561.613 -14.026 584.394 -25.1414C594.903 -30.472 605.904 -34.7952 617.244 -38.0519C630.755 -41.753 645.338 -42.8522 659.301 -42.916C686.336 -43.0521 712.977 -38.041 739.634 -34.2812C765.838 -30.5756 792.004 -28.7378 818.413 -31.4101C869.476 -36.5815 919.27 -54.4592 962.372 -81.9612C974.215 -89.5397 985.554 -97.8636 996.318 -106.881C996.705 -107.196 996.18 -107.782 995.844 -107.475C953.112 -71.8113 901.973 -47.3885 847.181 -36.4761C821.359 -31.2853 794.937 -29.6782 768.68 -31.7014C741.896 -33.8553 715.555 -39.3417 688.845 -42.0904C663.809 -44.6622 636.984 -45.1208 612.732 -37.4823C590.575 -30.5085 569.656 -19.2997 550.72 -6.02594C531.784 7.24778 513.688 23.435 500.778 42.8609C488.561 61.2608 480.754 82.0138 476.332 103.494C467.567 145.623 470.891 190.203 454.455 230.666C445.225 253.425 429.02 277.782 406.978 290.051C385.313 302.141 360.633 298.573 338.18 291.015C318.232 284.316 299.391 274.43 278.813 269.444C260.526 265.168 241.708 263.511 222.934 264.524C185.149 266.234 143.74 277.029 116.305 304.292C102.547 317.96 95.3638 334.8 89.9388 353.044C83.648 374.161 79.7416 395.901 73.2898 416.981C66.1908 440.197 55.675 462.27 39.5314 480.731C21.3029 501.545 -3.08207 515.899 -29.7898 523.325C-41.0956 526.436 -52.6986 528.365 -64.4077 529.081C-64.9013 529.104 -64.7866 529.855 -64.293 529.831L-64.301 529.914Z" fill="#B4B4B4"/>
<path d="M-68.1371 535.047C-17.3066 533.504 29.72 508.367 54.8796 463.984C77.935 423.319 76.9785 375.801 94.0271 333.177C109.758 293.793 152.675 274.365 192.471 267.785C213.143 264.333 234.217 263.959 254.99 266.676C275.966 269.462 294.76 276.939 313.994 285.261C333.96 293.902 355.219 303.146 377.472 302.556C401.045 301.929 419.131 288.313 433.252 270.578C461.935 234.609 465.231 190.451 468.154 146.554C469.678 123.803 471.76 100.968 478.554 79.0779C485.823 55.3088 498.872 33.6528 516.559 16.006C534.885 -2.27338 556.895 -17.1891 580.264 -28.4306C591.092 -33.7466 602.416 -38.0094 614.075 -41.1587C627.922 -44.7672 642.874 -45.2057 657.114 -44.7484C684.962 -43.8403 712.216 -37.7959 739.532 -32.9789C766.143 -28.3011 792.796 -25.3801 819.829 -27.2254C872.705 -30.8384 924.721 -48.5404 969.285 -76.8469C981.234 -84.4468 992.656 -92.8289 1003.47 -101.937C1003.85 -102.25 1003.34 -102.837 1002.99 -102.519C959.228 -65.8247 906.373 -41.3202 849.883 -31.5338C823.011 -26.8915 795.606 -26.1378 768.529 -29.2964C741.101 -32.5405 714.203 -39.0994 686.774 -42.8245C661.521 -46.2746 634.206 -47.9079 609.51 -40.6015C586.716 -33.8591 565.178 -22.6384 545.763 -9.108C526.521 4.2632 508.491 20.4812 495.769 40.1858C483.641 58.9614 476.232 80.0841 472.301 101.93C464.463 145.516 469.613 191.396 453.588 233.466C444.727 256.814 428.398 281.988 405.796 294.322C383.803 306.297 358.968 301.852 336.589 293.689C316.203 286.227 296.945 275.442 275.804 269.958C257.538 265.392 238.689 263.493 219.857 264.32C181.739 265.682 139.743 276.433 112.298 304.24C98.3147 318.402 91.3552 335.823 86.3364 354.691C80.5082 376.598 77.2405 399.06 71.2326 420.944C64.6391 444.891 54.3728 467.715 37.928 486.714C19.3872 508.127 -5.80063 522.582 -33.3104 529.505C-44.7485 532.356 -56.4652 533.962 -68.2518 534.296C-68.747 534.31 -68.6221 535.059 -68.1371 535.047Z" fill="#B4B4B4"/>
<path d="M-72.0742 540.188C-21.0308 540.241 26.9428 515.81 52.2688 471.229C76.1116 429.277 73.5773 380.247 89.3628 335.798C103.92 294.697 147.189 274.254 187.968 267.536C209.115 264.02 230.679 263.771 251.891 266.797C273.3 269.907 292.256 277.902 311.706 286.898C331.685 296.161 352.978 306.168 375.513 306.272C399.351 306.363 417.791 293.031 432.018 275.106C446.244 257.18 455.247 236.052 459.704 213.778C464.16 191.505 464.48 168.731 465.332 146.122C466.221 122.597 467.71 98.8682 474.32 76.1772C481.427 51.5937 494.849 29.2365 513.279 11.2823C532.125 -7.11674 554.803 -22.0004 578.83 -32.8704C590.024 -38.0847 601.747 -42.1048 613.799 -44.8626C628.256 -48.0004 643.727 -47.7598 658.408 -46.6525C686.432 -44.5222 713.692 -37.3628 741.042 -31.5069C768.024 -25.759 795.157 -21.8665 822.831 -23.0409C876.444 -25.3529 929.498 -42.4337 974.842 -70.7865C987.401 -78.6237 999.379 -87.3381 1010.68 -96.8631C1011.06 -97.176 1010.55 -97.7636 1010.2 -97.4553C965.486 -59.8668 911.055 -35.3659 853.053 -26.7197C826.08 -22.7029 798.659 -22.673 771.692 -26.631C743.751 -30.7289 716.518 -38.4555 688.733 -43.4268C663.067 -48.0223 634.905 -51.1246 609.285 -44.5793C586.172 -38.6383 564.252 -27.8103 544.455 -14.6828C524.154 -1.19241 505.003 15.4818 491.717 36.0394C479.326 55.1925 472.066 76.8864 468.462 99.2459C461.27 144.28 468.479 191.435 453.12 235.216C444.751 259.136 428.705 285.014 405.899 297.767C383.583 310.273 358.197 305.276 335.594 296.461C315.245 288.564 296.176 277.187 275.116 271.015C256.742 265.603 237.35 263.632 218.215 264.017C179.312 264.78 136.065 275.475 108.27 304.113C94.3979 318.392 87.6273 335.896 83.0334 354.833C77.695 376.963 75.0792 399.624 69.8801 421.784C63.977 446.927 54.2893 471.097 37.5115 491.169C18.9038 513.432 -6.81565 528.407 -35.1189 535.154C-47.1987 538.004 -59.5757 539.425 -71.9895 539.387C-72.476 539.389 -72.5684 540.14 -72.0803 540.148L-72.0742 540.188Z" fill="#B4B4B4"/>
<path d="M-75.9112 545.327C-22.8365 546.945 27.3605 521.339 52.1155 474.039C74.7443 430.787 70.1887 381.07 85.6058 335.837C99.8701 293.972 144.16 273.292 185.489 266.921C206.744 263.611 228.388 263.641 249.621 267.011C271.01 270.461 289.825 278.826 309.07 288.303C329.32 298.262 350.936 309.295 374.059 309.924C398.555 310.592 417.511 296.844 431.854 278.256C461.539 239.761 462.06 192.757 462.473 146.547C462.693 122.376 463.483 97.9339 469.76 74.4231C476.386 49.248 489.766 26.2975 508.486 7.99735C527.245 -10.3579 549.885 -25.0822 573.896 -35.786C585.648 -41.1742 597.961 -45.2706 610.613 -48.0015C625.125 -50.9838 640.55 -50.4292 655.221 -48.9826C684.669 -46.0747 713.154 -37.4728 741.767 -30.3338C769.398 -23.4557 797.254 -18.4952 825.859 -19.0017C880.723 -19.9774 935.329 -36.7299 981.772 -65.5458C994.419 -73.422 1006.46 -82.2058 1017.81 -91.8262C1018.19 -92.1491 1017.67 -92.7367 1017.33 -92.4184C971.788 -54.0268 915.949 -29.5562 856.631 -21.9959C827.987 -18.3704 798.95 -19.2741 770.611 -24.6729C742.619 -29.9814 715.43 -38.6461 687.583 -44.5601C660.818 -50.2485 631.554 -54.1875 604.578 -47.3655C581.408 -41.5284 559.374 -30.8368 539.53 -17.7431C519.064 -4.24825 499.799 12.5659 486.709 33.3807C474.123 53.3617 467.192 75.9886 464.222 99.2451C458.347 145.503 467.169 193.725 452.073 238.756C443.964 262.953 427.906 289.355 404.769 301.985C382.12 314.346 356.518 308.471 334.035 299.085C313.544 290.533 294.458 278.504 273.229 271.764C254.484 265.825 234.564 263.514 214.919 263.751C176.054 264.222 132.844 274.686 104.938 303.207C74.099 334.761 76.133 383.703 67.9963 424.047C62.8052 449.851 53.7659 474.875 37.0391 495.686C18.5289 518.723 -7.44318 534.146 -36.3137 540.773C-49.2573 543.749 -62.5351 545.044 -75.8112 544.626C-76.3008 544.608 -76.3932 545.359 -75.9036 545.377L-75.9112 545.327Z" fill="#B4B4B4"/>
<path d="M-79.7445 550.458C-53.4676 552.003 -26.6661 547.019 -3.31826 534.757C20.2097 522.386 38.8768 502.612 50.7129 479.079C61.7695 457.088 66.3328 432.802 69.4712 408.681C72.6095 384.56 74.0874 359.266 81.8207 335.863C95.8398 293.411 140.683 272.555 182.418 266.399C203.918 263.205 225.792 263.468 247.194 267.18C269.181 271.021 288.284 280.181 307.876 290.373C327.974 300.827 349.451 312.372 372.646 313.543C397.125 314.776 416.271 301.389 430.65 282.764C461.154 243.255 460.579 194.851 459.702 147.577C459.242 122.618 459.267 97.3088 465.175 72.8711C471.411 46.894 484.827 23.1289 503.924 4.23057C523.749 -15.3077 547.263 -30.8042 573.126 -41.3751C599.748 -52.2791 627.002 -54.8437 655.555 -51.0123C685.551 -46.9588 714.287 -37.1871 743.28 -28.9896C770.975 -21.1487 799.008 -15.2322 827.948 -14.9705C884.479 -14.458 941.154 -30.8887 989.007 -60.583C1001.64 -68.4304 1013.67 -77.205 1024.98 -86.8327C1025.35 -87.1456 1024.84 -87.7331 1024.49 -87.4248C978.006 -48.1098 920.574 -23.6389 859.784 -17.245C831.038 -14.2423 801.999 -15.8351 773.782 -21.9621C744.969 -28.2417 717.197 -38.1389 688.599 -45.2494C661.302 -52.0449 632.266 -56.6632 604.245 -51.5258C580.132 -47.1124 557.092 -36.2893 536.683 -22.9668C515.714 -9.3038 496.03 7.95251 482.656 29.2196C469.493 50.0351 462.686 73.8002 460.221 98.1268C455.388 145.65 465.968 194.865 451.416 241.288C443.652 266.181 427.459 293.402 403.626 306.146C380.694 318.417 354.734 311.563 332.439 301.646C311.854 292.475 292.743 279.804 271.325 272.509C252.524 266.138 232.403 263.458 212.548 263.471C173.094 263.478 128.923 273.893 100.825 303.119C86.4372 318.09 79.7921 336.415 75.9131 356.37C71.3141 380.016 69.9903 404.149 65.8177 427.874C61.2062 454.082 52.6748 479.581 36.03 500.862C17.1979 524.909 -9.82994 540.676 -39.7985 546.896C-52.8846 549.574 -66.2701 550.517 -79.6015 549.7C-80.0927 549.671 -80.185 550.422 -79.6939 550.451L-79.7445 550.458Z" fill="#B4B4B4"/>
<path d="M-83.58 555.604C-56.638 557.908 -28.9274 553.248 -4.89687 540.709C18.9317 528.272 37.7634 508.084 49.2963 484.126C60.4085 461.143 64.3824 435.78 66.9668 410.678C69.439 386.196 70.3504 360.856 77.5785 337.129C90.9162 293.337 136.684 271.891 179.354 265.89C201.544 262.746 224.105 263.325 246.086 267.604C268.154 271.975 287.149 281.787 306.661 292.472C326.626 303.406 347.989 315.429 371.247 317.144C396.389 318.993 416.029 305.173 430.501 285.94C461.388 244.94 459.046 194.868 456.937 146.45C455.865 121.348 455.302 95.9129 460.684 71.1554C466.538 44.0131 480.349 19.1628 500.392 -0.291652C520.326 -19.5499 543.907 -34.7311 569.779 -44.9629C597.122 -55.8225 624.96 -57.9534 653.965 -53.2689C684.499 -48.3346 713.563 -37.5067 742.902 -28.1947C770.749 -19.3633 798.981 -12.2792 828.328 -11.0451C886.21 -8.60766 944.889 -24.3995 994.215 -54.3473C1007.58 -62.4819 1020.26 -71.6668 1032.13 -81.8128C1032.51 -82.1357 1031.99 -82.7233 1031.65 -82.405C983.824 -41.853 924.235 -17.3403 861.474 -12.4021C831.155 -10.1278 800.674 -12.9255 771.314 -20.6772C742.482 -28.1619 714.65 -39.0018 685.982 -46.9005C659.113 -54.2827 630.389 -59.5726 602.519 -55.0723C577.803 -51.0796 554.169 -40.3508 533.265 -27.0148C511.747 -13.3508 491.626 4.09445 478.113 25.7408C464.76 47.2095 458.203 71.6636 456.267 96.6063C452.364 145.606 464.889 196.094 450.689 244.132C443.17 269.479 426.953 297.696 402.53 310.305C379.706 322.068 354.223 315.009 332.3 304.882C311.4 295.216 292.206 281.8 270.56 273.69C251.377 266.507 230.606 263.444 210.144 263.211C170.132 262.75 125.048 273.087 96.7105 302.984C82.0558 318.446 75.5935 337.358 72.103 357.888C67.9478 382.337 67.276 407.212 63.5644 431.717C59.5514 458.315 51.5222 484.322 34.9361 506.054C16.1765 530.644 -11.1681 546.642 -41.5697 552.672C-55.38 555.368 -69.505 556.104 -83.5181 554.858C-83.6152 554.856 -83.7097 554.889 -83.7832 554.952C-83.8566 555.015 -83.9036 555.103 -83.915 555.198C-83.9264 555.293 -83.9013 555.39 -83.8447 555.467C-83.788 555.545 -83.7039 555.599 -83.6089 555.619L-83.58 555.604Z" fill="#B4B4B4"/>
<path d="M-87.4173 560.709C-59.839 563.787 -31.1726 559.484 -6.46397 546.638C17.9086 533.965 36.9376 513.102 48.2367 488.361C58.8772 465.071 62.2631 439.52 64.2672 414.28C66.2712 389.04 66.4583 362.959 73.3812 338.389C85.8765 293.761 131.74 271.584 174.89 265.542C197.786 262.291 221.074 263.035 243.695 267.74C266.457 272.58 285.801 283.25 305.739 294.69C325.677 306.13 346.809 318.535 370.125 320.702C395.098 323.068 414.88 309.636 429.354 290.485C461.281 248.222 457.641 196.504 454.279 146.801C452.515 120.626 451.225 94.0317 456.52 68.1614C461.948 40.8238 475.706 15.7675 495.945 -3.64221C516.297 -23.1697 541.322 -38.2853 567.704 -48.3853C580.298 -53.2069 593.501 -57.0253 606.935 -58.5856C622.577 -60.408 638.944 -58.3066 654.316 -55.2564C714.487 -43.5324 768.498 -11.3349 830.508 -7.16715C889.819 -3.17478 950.44 -18.5233 1001.14 -49.1703C1014.61 -57.3295 1027.37 -66.5727 1039.3 -76.8056C1039.68 -77.1185 1039.16 -77.7061 1038.82 -77.3878C990.116 -36.0056 929.048 -11.5458 864.993 -7.7642C833.787 -6.05087 802.527 -9.70311 772.604 -18.5584C743.336 -27.0624 715.218 -38.9545 686.083 -47.8778C659.088 -56.1521 629.088 -63.2145 600.746 -58.4176C575.312 -54.1114 550.843 -43.4919 529.062 -29.9927C506.929 -16.2869 486.037 1.39784 472.658 23.8531C459.933 45.2269 453.933 69.3305 452.416 93.8926C449.267 144.641 463.918 196.701 450.087 246.69C442.895 272.684 426.435 302.013 401.24 314.523C377.804 326.144 351.841 317.846 329.894 307.017C308.833 296.638 289.507 282.495 267.512 273.997C248.157 266.503 227.117 263.235 206.381 262.91C166.04 262.263 120.405 272.715 92.2115 303.286C77.5485 319.169 71.4168 338.481 68.355 359.376C64.6438 384.629 64.6121 410.235 61.3546 435.542C57.8698 462.817 50.1888 489.611 33.331 511.938C14.3027 537.141 -13.869 553.285 -45.0686 558.77C-59.033 561.191 -73.2745 561.603 -87.3507 559.993C-87.4514 559.981 -87.5529 560.009 -87.6327 560.071C-87.7126 560.133 -87.7644 560.224 -87.7766 560.324C-87.7889 560.423 -87.7606 560.523 -87.698 560.602C-87.6355 560.681 -87.5438 560.732 -87.443 560.744L-87.4173 560.709Z" fill="#B4B4B4"/>
<path d="M-91.2479 565.875C-63.3104 569.676 -34.1159 565.846 -8.86095 553.05C16.394 540.254 36.0436 518.437 47.1619 492.649C57.5555 468.556 60.2819 442.214 61.6954 416.296C63.1088 390.378 62.5918 363.554 69.4589 338.347C81.9703 292.673 129.143 270.39 173.199 264.845C196.114 261.905 219.367 262.999 241.881 268.076C264.952 273.381 284.433 284.808 304.48 296.825C324.527 308.842 345.776 321.875 369.429 324.349C394.695 327.009 414.762 313.206 429.199 293.672C461.348 250.157 456.164 197.075 451.604 146.519C449.211 119.959 447.253 92.9225 452.065 66.5316C457.208 38.2478 470.507 12.8359 491.427 -7.17668C512.347 -27.1893 538.228 -42.5266 565.473 -52.4705C578.228 -57.1218 591.601 -60.71 605.171 -61.9939C621.507 -63.5425 638.638 -60.7787 654.59 -57.1817C715.367 -43.3278 769.533 -9.03464 832.507 -3.30312C893.398 2.28277 956.129 -12.6784 1008.31 -44.113C1021.79 -52.2665 1034.55 -61.5237 1046.46 -71.7868C1046.84 -72.1097 1046.32 -72.6973 1045.99 -72.3805C996.769 -30.1344 933.14 -5.58912 868.054 -3.11896C835.881 -1.89896 804.416 -6.68244 773.825 -16.4604C744.418 -25.8748 716.25 -38.6397 687.017 -48.5411C659.88 -57.746 629.351 -66.1002 600.421 -62.1663C574.231 -58.6058 548.909 -48.0723 526.361 -34.5084C503.514 -20.7354 481.734 -2.69129 468.136 20.4317C455.047 42.6079 449.459 67.7854 448.523 93.2322C446.614 144.704 462.547 197.154 449.818 248.113C443.085 275.081 426.461 305.981 400.188 318.624C376.385 330.074 350.192 320.88 328.366 309.562C307.531 298.759 288.484 284.339 266.786 275.212C247.281 267.014 225.863 263.301 204.787 262.649C163.483 261.39 116.27 271.825 87.7215 303.596C73.0792 319.885 67.2624 339.631 64.6045 360.865C61.3417 386.95 61.966 413.256 59.213 439.356C56.2363 467.312 48.9354 494.899 31.8463 517.813C12.5048 543.677 -16.5102 559.929 -48.4907 564.846C-62.5911 566.988 -76.9282 567.086 -91.0497 565.138C-91.1504 565.126 -91.2519 565.154 -91.3318 565.216C-91.4116 565.278 -91.4634 565.369 -91.4756 565.469C-91.4879 565.568 -91.4596 565.669 -91.397 565.747C-91.3345 565.826 -91.2427 565.877 -91.142 565.889L-91.2479 565.875Z" fill="#B4B4B4"/>
<path d="M-95.0838 571.021C-66.822 575.521 -37.0326 572.195 -11.2632 559.444C14.5062 546.693 34.4941 524.446 45.5025 498.142C55.9867 473.084 58.1428 445.723 58.9959 418.917C59.843 392.276 58.5725 364.317 65.5561 338.314C77.9561 292.114 125.633 269.673 170.131 264.379C193.934 261.462 218.069 262.944 241.308 268.747C264.224 274.598 283.466 286.634 303.245 298.999C323.024 311.364 344.806 325.237 368.791 327.989C394.47 330.975 414.727 316.785 429.117 296.818C461.492 252 454.656 197.53 448.898 146.111C445.829 118.792 443.204 90.9153 447.887 63.5508C452.518 34.8488 466.57 8.43261 487.875 -11.6238C509.28 -31.7814 535.851 -47.0796 563.71 -56.6659C576.501 -61.0772 589.907 -64.3836 603.449 -65.3767C621.167 -66.6941 639.604 -63.0426 656.64 -58.5243C717.098 -42.4928 770.704 -7.11205 833.69 0.388691C896.244 7.84214 961.401 -6.63608 1015.24 -38.9558C1028.81 -47.1273 1041.64 -56.431 1053.61 -66.7649C1053.98 -67.0878 1053.47 -67.6754 1053.12 -67.3571C1002.22 -23.4639 935.375 1.11713 867.859 1.51827C836.047 1.71121 805.145 -3.9968 775.2 -14.4252C745.027 -24.9216 716.266 -38.8559 686.276 -49.8507C658.979 -59.8298 628.2 -69.0677 598.76 -65.6914C571.424 -62.582 544.822 -51.7526 521.426 -37.7023C499.19 -24.3389 477.966 -6.92152 464.525 15.4613C450.679 38.448 445.14 64.826 444.605 91.3382C443.632 144.327 461.498 198.041 449.285 250.682C442.904 277.843 426.665 308.961 400.503 322.058C376.55 334.022 350.129 324.555 328.192 312.845C307.019 301.53 287.903 286.455 265.976 276.503C246.369 267.572 224.609 263.39 203.069 262.47C161.348 260.588 113.524 270.685 84.4257 302.519C68.9027 319.484 63.0364 340.261 60.7087 362.571C57.9491 389.102 59.1693 415.85 56.9966 442.426C54.6238 471.284 47.7529 499.921 30.2029 523.682C10.9426 549.74 -18.2289 565.984 -50.3093 570.721C-65.138 572.861 -80.2079 572.722 -94.9853 570.31C-95.474 570.231 -95.5547 570.99 -95.0761 571.071L-95.0838 571.021Z" fill="#B4B4B4"/>
<path d="M-98.9036 576.154C-69.6025 581.49 -38.3937 578.368 -11.6577 564.826C14.712 551.462 34.6491 528.138 44.9815 500.8C54.6425 475.303 56.0401 447.791 56.3042 420.859C56.5683 393.927 54.7664 365.813 61.2971 339.49C73.1975 291.512 122.637 268.539 168.493 263.725C192.315 261.132 216.409 262.961 239.536 269.117C262.894 275.485 282.326 288.362 302.358 301.364C322.162 314.227 343.643 328.371 367.68 331.596C393.898 335.125 414.519 320.542 429.024 300.036C461.806 253.682 453.069 197.483 446.11 144.986C442.47 117.519 439.306 89.5081 443.423 61.8915C447.854 32.2004 461.345 5.54117 483.428 -15.2C504.99 -35.4837 531.858 -50.7348 559.944 -60.1916C573.421 -64.7269 587.551 -68.0405 601.8 -68.8128C619.758 -69.7776 638.346 -65.6781 655.479 -60.7342C717.402 -42.8361 771.858 -4.74808 836.709 4.25176C900.37 13.0528 967.19 -0.847614 1022.19 -33.7728C1035.86 -41.9792 1048.77 -51.3442 1060.8 -61.7617C1061.16 -62.0831 1060.66 -62.6722 1060.31 -62.3539C1008.45 -17.5166 940.051 6.80772 871.3 6.04427C838.44 5.67918 806.774 -1.02911 776.092 -12.554C745.832 -23.9585 717.036 -38.727 686.984 -50.6031C658.588 -61.8082 626.438 -72.3639 595.426 -69.0367C567.785 -66.086 540.829 -55.4077 517.131 -41.3015C494.231 -27.674 472.427 -9.64678 459.075 13.5927C445.724 36.8321 440.687 63.3083 440.711 89.8179C440.751 144.282 460.55 199.259 448.613 253.568C442.548 281.244 426.141 313.36 399.273 326.246C374.712 338.026 347.82 327.31 325.913 314.98C304.898 303.14 285.882 287.702 264.081 277.291C244.214 267.806 221.947 263.29 200.011 262.154C157.985 259.97 109.529 269.999 80.316 302.301C64.9065 319.33 59.0792 340.091 57.0395 362.388C54.5542 389.697 56.4131 417.167 54.8665 444.518C53.1546 473.972 47.1119 503.487 29.6757 528.061C10.2695 555.399 -19.8845 572.263 -53.1652 576.67C-68.3562 578.623 -83.7597 578.188 -98.8042 575.381C-99.2842 575.29 -99.3766 576.041 -98.8864 576.131L-98.9036 576.154Z" fill="#B4B4B4"/>
<path d="M-102.74 581.291C-73.1142 587.325 -41.3378 584.731 -14.0585 571.22C12.4796 558.076 32.5544 534.772 42.9025 507.401C52.8976 480.974 53.8272 452.365 53.5637 424.489C53.2952 397.054 50.9116 368.455 56.8775 341.418C67.7854 291.964 117.933 268.064 164.852 263.294C189.512 260.684 214.441 262.843 238.249 269.651C261.715 276.524 281.105 290.073 301.113 303.53C321.122 316.986 343.086 331.989 367.712 335.339C393.666 338.836 414.097 324.231 428.387 303.941C462.166 255.84 451.449 197.667 443.254 143.73C438.895 115.215 435.093 86.0109 439.355 57.2462C443.825 27.3343 457.643 0.707669 480.063 -19.9209C502.484 -40.5494 530.785 -56.1194 560.174 -65.0465C574.627 -69.4325 589.871 -72.505 605.045 -72.24C622.139 -71.948 639.471 -67.5972 655.654 -62.4893C718.269 -42.6483 772.919 -2.67551 838.69 7.93576C903.479 18.4192 972.208 5.1514 1028.56 -28.2651C1042.53 -36.5711 1055.71 -46.1016 1067.95 -56.7413C1068.33 -57.0642 1067.82 -57.6518 1067.47 -57.3335C1015.12 -11.9517 945.756 12.1501 876.303 10.5919C842.721 9.84452 810.351 2.52616 779.261 -9.83787C748.171 -22.2019 718.75 -38.1453 688.002 -51.1855C660.145 -62.9943 628.407 -74.5847 597.586 -72.8526C569.281 -71.2654 541.295 -60.9535 516.81 -47.1888C492.966 -33.7667 470.032 -15.6812 455.838 7.94152C441.643 31.5643 436.471 58.9822 436.737 86.2639C437.32 142.109 458.976 197.85 448.5 253.791C443.176 282.378 427.021 316.012 399.54 329.697C374.852 341.998 347.658 331 325.7 318.341C304.36 305.997 285.211 289.965 263.221 278.651C243.566 268.591 221.309 263.593 199.318 262.035C156.33 258.983 106.185 268.735 76.2802 301.929C60.4824 319.468 54.7621 340.93 53.0999 363.865C51.0304 392.268 53.6043 420.757 52.4704 449.181C51.2861 478.699 45.6664 508.406 28.4943 533.216C8.97603 561.38 -21.8141 578.555 -55.849 582.636C-71.4855 584.443 -87.3105 583.724 -102.704 580.507C-103.196 580.407 -103.278 581.157 -102.796 581.258L-102.74 581.291Z" fill="#B4B4B4"/>
<path d="M-106.578 586.427C-76.6483 593.162 -44.2957 591.085 -16.4715 577.614C11.0354 564.304 31.6469 540.039 41.7214 511.623C51.1383 485.14 51.6068 456.632 50.826 428.895C50.0597 400.441 46.9369 370.868 52.575 342.704C62.754 291.936 113.879 267.388 161.751 262.822C186.665 260.331 211.822 262.723 235.781 269.861C259.457 277.091 278.854 291.09 298.865 305.037C319.157 319.197 341.389 335.071 366.546 338.914C393.061 342.962 413.864 328.013 428.26 307.134C462.274 257.789 449.923 198.144 440.519 143.407C435.574 114.519 431.108 84.9041 434.914 55.5942C438.881 24.97 452.663 -2.36775 475.548 -23.4861C498.886 -44.888 528.285 -60.5933 558.795 -69.3009C573.516 -73.492 589.16 -76.3179 604.516 -75.5379C621.68 -74.6526 638.87 -70.0141 655.03 -64.5138C718.307 -42.9815 773.144 -1.04077 839.749 11.4304C905.862 23.802 976.684 11.4155 1034.62 -22.5577C1049.01 -31.0184 1062.56 -40.7859 1075.12 -51.7333C1075.48 -52.0547 1074.98 -52.6438 1074.64 -52.3155C1021.13 -5.79723 949.703 18.0744 878.807 15.0659C844.32 13.6159 811.318 5.2158 779.709 -8.23681C748.46 -21.5083 718.96 -38.2382 688.06 -52.1358C659.775 -64.8523 627.468 -77.5136 595.811 -76.3101C566.975 -75.2159 538.325 -65.0492 513.298 -51.2334C488.808 -37.7034 465.111 -19.1853 450.927 5.18322C436.985 29.1671 432.161 56.6246 432.846 84.0067C434.279 141.617 458.074 198.816 447.956 256.689C442.904 285.573 426.821 319.81 399.058 333.61C373.845 346.072 346.155 334.064 324.103 320.794C302.657 307.893 283.487 291.311 261.361 279.516C241.467 268.909 218.762 263.558 196.318 261.813C152.805 258.442 101.725 268.243 71.7848 302.292C55.7938 320.464 50.4764 342.663 49.2476 366.199C47.7488 395.15 50.91 424.092 50.283 453.054C49.6677 482.906 44.5284 513.113 27.4702 538.398C7.94122 567.372 -23.6252 584.889 -58.3925 588.651C-74.4866 590.31 -90.7427 589.308 -106.494 585.687C-106.977 585.576 -107.068 586.337 -106.586 586.438L-106.578 586.427Z" fill="#B4B4B4"/>
<path d="M-110.407 591.57C-79.4341 599.171 -45.6154 597.334 -16.8049 582.997C11.113 569.123 31.4703 543.872 40.9055 514.663C49.8437 487.014 49.3831 457.509 47.9953 428.851C46.6075 400.194 42.7804 369.673 48.9067 341.179C59.9232 289.927 112.398 265.942 160.864 262.146C186.066 260.178 211.985 262.842 235.952 270.888C259.919 278.934 279.38 294.101 299.59 308.601C319.799 323.102 342.038 339.158 367.315 342.768C394.358 346.613 415.119 330.238 429.219 308.841C462.457 258.15 448.136 197.471 437.707 142.265C432.157 112.742 427.061 82.4542 430.719 52.3168C434.516 21.1246 448.578 -6.68542 472.057 -27.9141C495.857 -49.5496 525.952 -65.1042 557.072 -73.4127C571.89 -77.3729 587.565 -79.8655 602.941 -78.8223C620.482 -77.6358 637.974 -72.5107 654.392 -66.5476C718.347 -43.3572 773.402 0.485298 840.847 14.7949C908.292 29.1045 981.118 17.6331 1040.69 -16.8727C1055.5 -25.4713 1069.43 -35.4633 1082.3 -46.7092C1082.68 -47.0321 1082.16 -47.6197 1081.82 -47.3014C1026.89 0.577747 952.992 24.1787 880.186 19.4525C845.158 17.1733 811.89 7.70792 780.075 -6.68603C748.77 -20.8602 719.184 -38.4267 688.156 -53.0932C659.667 -66.5979 627.04 -80.2037 594.88 -79.784C565.262 -79.4007 535.603 -69.2557 509.834 -55.2866C485.078 -41.8699 461.162 -23.3597 446.794 1.08792C432.582 25.2763 427.895 53.1533 428.859 80.8003C430.923 140.035 456.727 198.312 447.659 257.971C443.186 287.392 427.657 321.863 399.994 336.661C375.098 349.976 347.267 338.265 325.267 324.926C302.777 311.293 283 293.523 260.054 280.633C240.576 269.697 218.265 263.94 196.055 261.759C151.969 257.42 99.86 266.589 68.8799 300.611C52.3042 318.82 46.504 341.317 45.4322 365.27C44.0972 394.953 47.8879 424.558 47.9791 454.22C48.073 484.917 43.9045 516.257 26.8799 542.642C7.47712 572.713 -24.7022 590.896 -60.3294 594.522C-77.0912 596.151 -94.0063 594.898 -110.325 590.82C-110.808 590.709 -110.89 591.459 -110.416 591.582L-110.407 591.57Z" fill="#B4B4B4"/>
<path d="M-114.343 596.681C-83.345 604.851 -49.3205 603.75 -20.0954 589.822C8.61914 576.145 29.6979 550.396 39.1273 520.471C48.0955 492.07 47.1434 461.79 45.2289 432.465C43.3111 402.915 38.8348 371.806 44.586 342.417C54.875 289.862 108.397 265.207 157.782 261.661C183.449 259.828 209.867 262.764 234.128 271.318C258.116 279.771 277.536 295.414 297.672 310.315C317.808 325.216 340.355 342.137 365.966 346.301C393.235 350.746 414.355 334.48 428.545 312.793C462.444 261.009 446.798 198.913 435.204 142.931C429.021 113.053 423.208 82.3519 426.159 51.7177C429.18 20.397 442.397 -8.06318 465.595 -29.7715C489.63 -52.241 520.501 -68.2814 552.341 -76.7601C567.49 -80.7908 583.457 -83.2663 599.142 -82.3006C617.158 -81.1959 635.138 -75.6533 651.877 -69.3499C717.379 -44.7145 772.943 1.77414 841.808 18.1212C910.428 34.3618 985.478 23.885 1046.67 -11.1536C1061.92 -19.9014 1076.25 -30.1335 1089.44 -41.6972C1089.81 -42.0185 1089.31 -42.6077 1088.96 -42.2893C1032.88 6.76782 956.859 30.0546 882.579 23.8212C846.672 20.8048 812.825 10.26 780.522 -5.22712C748.811 -20.4252 718.889 -38.9031 687.38 -54.5512C658.018 -69.0908 624.373 -83.7302 590.861 -83.2086C561.161 -82.7515 531.456 -72.845 505.497 -58.8984C480.382 -45.3866 456.054 -26.5989 441.808 -1.61712C427.562 23.3646 423.404 51.8577 424.968 80.1101C428.273 140.007 455.154 198.551 447.336 259.075C443.482 288.945 428.506 324.059 400.903 339.718C375.96 353.88 347.947 342.402 325.681 328.744C302.923 314.783 283.077 296.624 260.262 282.763C240.848 270.958 218.341 264.533 195.777 261.803C150.99 256.464 97.5169 265.112 65.5955 299.481C48.5633 317.821 42.4445 340.673 41.5615 365.047C40.4789 394.959 44.7229 424.751 45.5819 454.625C46.4941 486.405 43.3778 519.276 26.2296 547.02C7.04459 578.041 -25.6424 596.833 -61.9375 600.427C-79.4399 602.045 -97.0882 600.535 -114.038 595.969C-114.512 595.846 -114.797 596.555 -114.323 596.677L-114.343 596.681Z" fill="#B4B4B4"/>
<path d="M-118.173 601.822C-86.5966 610.724 -51.5793 610.087 -21.623 595.792C7.39872 581.956 28.4684 555.809 37.6412 525.493C46.477 496.293 44.9074 465.226 42.4863 435.23C39.9939 404.835 34.6901 372.583 40.6018 342.279C50.9645 288.986 105.385 264.379 155.443 261.172C181.574 259.524 208.446 262.862 232.969 271.971C257.491 281.08 276.985 297.808 297.405 313.28C317.825 328.752 340.712 346.338 366.901 350.22C394.922 354.367 416.067 336.235 429.853 313.8C462.389 260.819 444.951 198.053 432.407 141.948C425.654 111.737 419.273 80.64 421.839 49.5214C424.457 17.7294 437.555 -11.3065 461.079 -33.3201C485.675 -56.3247 517.509 -72.5621 550.16 -80.7538C565.88 -84.7071 582.359 -86.9528 598.612 -85.5203C616.956 -83.9021 635.17 -77.8422 652.143 -71.0929C718.805 -44.3603 775.066 4.38753 845.611 22.0365C914.863 39.3589 990.974 29.5917 1053.08 -5.65626C1068.62 -14.5028 1083.21 -24.9028 1096.6 -36.6924C1096.98 -37.0153 1096.47 -37.6029 1096.12 -37.2846C1039.03 12.816 961.165 35.7672 885.584 28.2053C848.935 24.5334 814.585 13.0716 781.87 -3.34622C749.703 -19.4989 719.405 -38.9437 687.464 -55.5194C657.912 -70.8288 623.948 -86.4743 589.898 -86.6903C559.404 -86.8911 528.733 -77.0639 502.032 -62.954C476.453 -49.4333 451.628 -30.4375 437.278 -5.05103C422.929 20.3354 419.01 49.7137 421.053 78.5283C425.387 139.396 453.606 198.495 446.985 260.138C443.757 290.313 429.636 325.052 402.823 342.086C377.454 358.206 348.353 346.452 325.382 332.041C302.149 317.548 282.048 298.608 258.883 283.951C239.457 271.656 216.908 264.756 194.147 261.749C148.625 255.733 93.8083 264.133 61.4169 299.29C44.2968 317.869 38.2254 341.031 37.6151 365.63C36.8548 396.363 41.7376 426.878 43.1589 457.516C44.6819 489.972 42.181 523.548 25.0585 552.138C5.97163 584.004 -27.5736 603.213 -64.5566 606.439C-82.5161 607.906 -100.589 606.111 -117.883 601.143C-118.359 601.01 -118.646 601.709 -118.168 601.852L-118.173 601.822Z" fill="#B4B4B4"/>
<path d="M-122.007 606.96C-90.1203 616.47 -54.5799 616.41 -24.0321 602.189C6.10721 588.143 27.6495 560.819 36.4838 529.306C44.8681 499.252 42.5702 467.487 39.514 436.86C36.4571 405.957 30.5232 372.97 36.526 342.11C47.1195 287.482 103.583 262.956 154.717 260.619C181.196 259.421 208.357 263.299 232.942 273.217C257.836 283.263 277.749 301.319 298.666 317.535C318.85 333.155 341.96 350.912 368.24 354.238C396.447 357.702 417.371 338.19 430.584 315.535C462.352 261.258 443.117 197.504 429.581 140.945C422.328 110.646 415.456 79.4495 417.459 48.1088C419.537 15.5591 432.491 -14.3457 456.556 -36.8914C481.481 -60.2428 513.973 -76.5181 547.194 -84.5709C563.404 -88.506 580.451 -90.6228 597.065 -88.866C615.473 -86.9607 633.694 -80.5844 650.656 -73.5059C718.327 -45.2472 774.977 5.63266 846.588 25.2395C917.042 44.5298 995.293 35.821 1059.11 0.0381267C1075.09 -8.94399 1090.06 -19.5734 1103.77 -31.672C1104.14 -31.9934 1103.63 -32.5825 1103.29 -32.2642C1044.97 19.0352 964.976 41.5921 887.929 32.5014C850.428 28.0677 815.517 15.5135 782.33 -1.95904C750.057 -18.9452 719.675 -39.145 687.556 -56.472C657.33 -72.8054 622.512 -89.6321 587.326 -90.1677C556.279 -90.592 524.951 -80.8701 497.71 -66.5659C471.466 -52.7811 446.113 -33.2447 431.91 -6.89772C417.992 18.9354 414.668 48.2134 417.163 77.0006C422.477 138.856 452.035 198.449 446.621 261.282C444.023 291.709 430.602 326.557 404.302 344.65C379.093 362.015 349.877 351.067 326.472 336.394C302.862 321.538 282.633 302.301 259.649 286.653C239.99 273.247 217.107 265.446 193.568 261.891C147.318 254.91 91.1655 262.837 57.88 298.446C40.442 317.114 34.1098 340.602 33.6699 365.503C33.1169 397.32 38.7109 428.761 40.7383 460.383C42.8461 493.344 41.125 527.887 23.9921 557.155C4.82721 589.933 -29.2897 609.535 -67.1352 612.473C-85.5669 613.777 -104.076 611.666 -121.712 606.25C-122.189 606.107 -122.474 606.816 -121.997 606.958L-122.007 606.96Z" fill="#B4B4B4"/>
<path d="M-125.842 612.094C-92.942 622.474 -55.8479 622.752 -24.3275 607.576C6.04613 592.962 27.2872 564.752 35.3867 532.633C43.2115 501.63 40.0329 469.118 36.4236 437.787C32.8144 406.455 26.2857 372.627 32.5749 341.201C43.561 286.227 100.891 261.949 152.367 260.093C179.311 259.09 206.928 263.37 231.757 273.937C256.784 284.587 276.766 303.36 297.771 320.013C318.128 336.16 341.68 354.772 368.524 357.991C397.016 361.423 417.867 340.96 430.892 318.026C462.332 262.621 441.57 197.89 427.018 140.85C419.22 110.173 411.659 78.5992 413.115 46.7271C414.571 14.4455 426.62 -15.8241 450.128 -38.6234C475.194 -62.8867 508.474 -79.6292 542.386 -87.8992C558.873 -91.9172 576.159 -94.0291 593.104 -92.4144C612.196 -90.5716 631.037 -83.7362 648.52 -76.2248C717.554 -46.5135 774.67 6.68074 847.513 28.3125C919.48 49.708 1000.38 41.9495 1066.04 5.19238C1082.09 -3.82482 1097.13 -14.5126 1110.89 -26.6884C1111.26 -27.0113 1110.75 -27.5989 1110.41 -27.2722C1050.88 25.2344 968.71 47.3832 890.243 36.726C851.404 31.4709 815.572 17.4999 781.548 -1.32C748.665 -19.5141 717.671 -40.7987 684.791 -59.0444C654.429 -75.8589 619.505 -93.1097 583.917 -93.6972C551.954 -94.2185 519.659 -84.1764 491.709 -69.2941C465.169 -55.1471 439.96 -35.1412 426.202 -8.05273C412.782 18.4011 410.314 48.123 413.467 77.1486C420.231 139.348 450.481 199.061 446.283 262.457C444.21 293.481 431.223 328.591 405.028 347.702C379.968 365.976 350.395 355.133 326.835 340.197C302.644 324.855 282.065 304.821 258.82 288.282C238.976 274.207 216.013 265.743 191.941 261.818C145.193 254.155 87.9382 261.716 54.1246 297.733C36.3082 316.703 29.9015 340.654 29.6869 366.012C29.4448 398.304 35.5381 430.233 38.1963 462.322C40.9315 495.321 40.2601 530.023 24.1218 559.969C5.47728 594.594 -29.7065 615.483 -68.9019 618.4C-88.0514 619.674 -107.263 617.289 -125.486 611.374C-125.954 611.23 -126.239 611.939 -125.771 612.083L-125.842 612.094Z" fill="#B4B4B4"/>
<path d="M-129.674 617.259C-95.8414 628.522 -57.4178 629.162 -24.9572 613.158C5.28959 598.256 26.1446 569.757 33.9205 537.553C41.7093 505.164 37.626 471.273 33.3116 438.718C29.1103 406.698 21.824 371.776 28.7636 339.658C41.0302 282.966 102.027 259.77 154.977 259.626C181.897 259.549 209.258 264.666 233.557 276.173C259.075 288.264 279.428 308.854 301.285 326.207C321.491 342.315 346.025 361.25 373.269 362.075C402.173 362.987 422.324 338.822 433.846 315.204C462.189 257.155 437.649 191.02 422.325 133.063C414.106 101.937 406.637 69.613 409.202 37.2046C411.789 4.5269 425.794 -24.8 450.495 -46.7764C476.282 -69.7154 509.438 -85.4361 543.22 -92.6626C558.798 -95.9903 574.968 -97.5445 590.854 -95.8722C608.749 -94.002 626.294 -87.6463 642.712 -80.6698C714.305 -50.2707 772.29 5.8224 846.513 30.7259C919.044 55.0662 1004.03 47.9291 1071.16 11.3478C1088.02 2.14017 1103.76 -8.92917 1118.1 -21.6471C1118.46 -21.9685 1117.96 -22.5576 1117.61 -22.2393C1056.28 32.0041 971.037 52.8561 890.543 40.3249C850.17 34.0526 813.957 18.1944 779.007 -2.27698C745.335 -21.9693 713.437 -44.499 679.301 -63.4353C650.452 -79.4344 617.59 -95.5945 583.919 -97.1269C552.437 -98.5705 520.386 -89.4356 492.431 -75.5352C465.611 -62.2057 439.406 -42.9501 424.442 -16.6415C409.747 9.19638 406.156 39.0267 408.797 68.1603C414.617 132.243 446.491 192.212 445.97 257.1C445.758 289.592 434.845 324.583 410.008 347.092C398.998 357.059 385.111 362.496 370.133 361.147C355.829 359.86 342.436 353.429 330.422 346.124C305.178 330.737 284.064 309.914 260.665 292.098C240.998 277.217 218.08 267.089 193.735 262.519C145.824 253.148 86.2328 259.855 50.8852 296.544C32.811 315.318 25.7843 339.413 25.634 364.853C25.434 398.235 32.2742 431.187 35.5836 464.283C38.9523 497.903 39.1101 533.421 23.2488 564.298C4.76664 600.188 -31.2857 621.833 -71.5552 624.431C-91.1779 625.554 -110.826 622.87 -129.392 616.53C-129.861 616.376 -130.148 617.075 -129.679 617.229L-129.674 617.259Z" fill="#B4B4B4"/>
</svg>
