<svg xmlns="http://www.w3.org/2000/svg" fill="none" viewBox="18.656 14.256 51.568 57.728" style="max-height: 500px" width="51.568" height="57.728">
<path fill="url(#paint0_linear_112_244)" d="M45.3321 58.5936C49.4206 57.0499 65.4437 49.3585 66.1529 23.4266C66.1831 22.3219 65.6067 21.2777 64.6683 20.6939C52.2526 12.9685 36.526 12.9685 24.1102 20.6939C23.1719 21.2777 22.5955 22.3219 22.6257 23.4266C23.3348 49.3585 39.3579 57.0499 43.4465 58.5936C44.0569 58.8241 44.7217 58.8241 45.3321 58.5936Z"/>
<path stroke-width="0.361074" stroke="url(#paint1_linear_112_244)" fill-opacity="0.6" fill="#6AE092" d="M22.8587 29.9335C35.9913 22.4291 52.0668 22.3122 65.2913 29.5819L65.9193 29.9335L67.889 31.0594C68.8973 31.6357 69.5493 32.69 69.5931 33.8358V34.0653C69.1308 48.0758 64.1013 57.0614 58.6585 62.7245C53.5525 68.0373 48.0744 70.4341 45.638 71.3046L45.1927 71.4589C44.7266 71.6145 44.2541 71.6341 43.7864 71.5175L43.5862 71.4589C41.4361 70.7408 35.5658 68.3913 30.1194 62.7245C24.8468 57.2383 19.9619 48.6342 19.2415 35.3641L19.1849 34.0653C19.1468 32.9093 19.7331 31.8187 20.6927 31.1805L20.889 31.0594L22.8587 29.9335Z" data-figma-bg-blur-radius="7.26263"/>
<path stroke-linejoin="round" stroke-linecap="round" stroke-width="0.288859" stroke="url(#paint3_linear_112_244)" fill-opacity="0.9" fill="url(#paint2_linear_112_244)" d="M53.4595 39.2021C54.4037 38.2582 55.8978 38.1994 56.9107 39.0254L57.107 39.2021C58.0513 40.1465 58.1102 41.6413 57.2838 42.6543L57.107 42.8496L44.397 55.5596C43.9134 56.0431 43.2577 56.3144 42.5738 56.3145C41.9752 56.3145 41.398 56.1066 40.939 55.7305L40.7496 55.5596L33.4869 48.2969C32.5429 47.3527 32.4842 45.8586 33.3101 44.8457L33.4869 44.6494C34.4312 43.7051 35.926 43.6462 36.939 44.4727L37.1343 44.6494L42.4713 49.9863C42.5276 50.0427 42.6189 50.0426 42.6754 49.9863L53.4595 39.2021Z"/>
<defs>
<clipPath transform="translate(-11.7402 -16.7728)" id="bgblur_0_112_244_clip_path"><path d="M22.8587 29.9335C35.9913 22.4291 52.0668 22.3122 65.2913 29.5819L65.9193 29.9335L67.889 31.0594C68.8973 31.6357 69.5493 32.69 69.5931 33.8358V34.0653C69.1308 48.0758 64.1013 57.0614 58.6585 62.7245C53.5525 68.0373 48.0744 70.4341 45.638 71.3046L45.1927 71.4589C44.7266 71.6145 44.2541 71.6341 43.7864 71.5175L43.5862 71.4589C41.4361 70.7408 35.5658 68.3913 30.1194 62.7245C24.8468 57.2383 19.9619 48.6342 19.2415 35.3641L19.1849 34.0653C19.1468 32.9093 19.7331 31.8187 20.6927 31.1805L20.889 31.0594L22.8587 29.9335Z"/>
</clipPath><linearGradient gradientUnits="userSpaceOnUse" y2="61.7776" x2="79.6437" y1="26.1407" x1="32.2928" id="paint0_linear_112_244">
<stop stop-color="#75EDA1"/>
<stop stop-color="#349256" offset="1"/>
</linearGradient>
<linearGradient gradientUnits="userSpaceOnUse" y2="75.4545" x2="82.9754" y1="28.9771" x1="19.9504" id="paint1_linear_112_244">
<stop stop-color="white"/>
<stop stop-opacity="0" stop-color="white" offset="0.734375"/>
</linearGradient>
<linearGradient gradientUnits="userSpaceOnUse" y2="49.9193" x2="76.278" y1="45.2254" x1="36.5598" id="paint2_linear_112_244">
<stop stop-color="white"/>
<stop stop-opacity="0" stop-color="white" offset="1"/>
</linearGradient>
<linearGradient gradientUnits="userSpaceOnUse" y2="46.3086" x2="49.5585" y1="40.8925" x1="33.3101" id="paint3_linear_112_244">
<stop stop-color="white"/>
<stop stop-opacity="0" stop-color="white" offset="1"/>
</linearGradient>
</defs>
</svg>