<svg width="101" height="101" viewBox="0 0 101 101" fill="none" xmlns="http://www.w3.org/2000/svg">
<path d="M50.5 1C77.5571 1 99.4999 23.0457 99.5 50.251C99.5 77.4564 77.5572 99.5029 50.5 99.5029C23.4428 99.5029 1.5 77.4564 1.5 50.251C1.50015 23.0457 23.4429 1 50.5 1Z" stroke="#F3BC2F" stroke-width="2"/>
<path d="M48.1 35.4H54.5V35.496V54.6H57.7V54.792V61H57.508H54.5V67.4H54.308H48.1V67.208V61H38.5V60.84V51.08C38.5213 50.12 38.6067 49.2347 38.756 48.424C38.9267 47.6133 39.1827 46.8347 39.524 46.088C39.8867 45.32 40.2067 44.712 40.484 44.264C40.7613 43.816 41.1667 43.1867 41.7 42.376C41.828 42.2053 41.9133 42.0773 41.956 41.992C42.724 40.8613 43.5453 39.8373 44.42 38.92C45.316 37.9813 46.5427 36.808 48.1 35.4ZM48.1 44.872C47.7373 45.192 47.3747 45.5653 47.012 45.992C46.4787 46.6107 45.9987 47.4533 45.572 48.52C45.2947 49.2027 45.092 50.2907 44.964 51.784L44.9 53.8V54.6H48.1V54.664V44.872Z" fill="black"/>
</svg>
