<svg width="101" height="101" viewBox="0 0 101 101" fill="none" xmlns="http://www.w3.org/2000/svg">
<path d="M97.1162 33.6887C97.6595 35.2183 98.1312 36.782 98.5264 38.3762L98.042 38.4963C98.4279 40.0536 98.7403 41.6405 98.9756 43.2522L99.4688 43.1799C99.7025 44.7809 99.8614 46.4064 99.9404 48.053H99.9414L99.4424 48.0764C99.4809 48.8796 99.5 49.6883 99.5 50.5012C99.5 51.3141 99.4809 52.1228 99.4424 52.926L99.9404 52.9485C99.8615 54.5951 99.7025 56.2205 99.4688 57.8215L98.9756 57.7502C98.7403 59.362 98.4279 60.9489 98.042 62.5061L98.5264 62.6252C98.1313 64.2195 97.6595 65.7832 97.1162 67.3127L96.6465 67.1467C96.1032 68.6764 95.4865 70.1712 94.8018 71.6272L95.251 71.8381C94.554 73.3203 93.7875 74.7625 92.9541 76.1604L92.5273 75.9065C91.698 77.2976 90.8028 78.6445 89.8457 79.9426L90.2461 80.2375C89.276 81.5533 88.2444 82.8203 87.1533 84.0325L86.7832 83.6985C85.7017 84.9 84.5619 86.048 83.3691 87.1379L83.7061 87.5071C82.5014 88.6078 81.2417 89.6482 79.9336 90.6272L79.6357 90.2288C78.344 91.1956 77.003 92.0996 75.6182 92.9377L75.875 93.3645C74.4822 94.2074 73.0447 94.9825 71.5674 95.6877L71.3535 95.2395C69.9011 95.9328 68.4092 96.5573 66.8828 97.1077L67.0518 97.5764C65.5244 98.1271 63.9625 98.6045 62.3701 99.0051L62.249 98.5217C60.6931 98.9132 59.1078 99.2303 57.4971 99.469L57.5693 99.9622C55.9688 100.199 54.3436 100.361 52.6973 100.441L52.6738 99.9426C51.8708 99.9817 51.0627 100.001 50.25 100.001C49.4373 100.001 48.6292 99.9817 47.8262 99.9426L47.8018 100.441C46.1554 100.36 44.5302 100.199 42.9297 99.9622L43.0029 99.469C41.3922 99.2303 39.8069 98.9132 38.251 98.5217L38.1289 99.0051C36.5366 98.6045 34.9746 98.1271 33.4473 97.5764L33.6172 97.1077C32.0908 96.5573 30.5989 95.9328 29.1465 95.2395L28.9316 95.6877C27.4544 94.9825 26.0168 94.2074 24.624 93.3645L24.8818 92.9377C23.497 92.0996 22.156 91.1956 20.8643 90.2288L20.5654 90.6272C19.2574 89.6482 17.9975 88.6078 16.793 87.5071L17.1309 87.1379C15.9381 86.048 14.7983 84.9 13.7168 83.6985L13.3457 84.0325C12.2546 82.8203 11.223 81.5533 10.2529 80.2375L10.6543 79.9426C9.69721 78.6445 8.80198 77.2976 7.97266 75.9065L7.54492 76.1604C6.7116 74.7625 5.945 73.3203 5.24805 71.8381L5.69824 71.6272C5.01355 70.1712 4.39684 68.6764 3.85352 67.1467L3.38281 67.3127C2.83957 65.7832 2.36774 64.2195 1.97266 62.6252L2.45801 62.5061C2.07207 60.9489 1.75972 59.362 1.52441 57.7502L1.03027 57.8215C0.796572 56.2205 0.637553 54.595 0.558594 52.9485L1.05762 52.926C1.01908 52.1228 1 51.3141 1 50.5012C1 49.6883 1.01908 48.8796 1.05762 48.0764L0.558594 48.053C0.637584 46.4064 0.796542 44.7809 1.03027 43.1799L1.52441 43.2522C1.75972 41.6405 2.07207 40.0536 2.45801 38.4963L1.97266 38.3762C2.35078 36.8506 2.79853 35.3526 3.3125 33.886L3.38281 33.6887L3.85352 33.8557C4.39684 32.326 5.01355 30.8313 5.69824 29.3752L5.24805 29.1633C5.94502 27.6812 6.71158 26.2389 7.54492 24.8411L7.97266 25.0959C8.80198 23.7048 9.69721 22.3579 10.6543 21.0598L10.2529 20.7639C11.223 19.4482 12.2546 18.1812 13.3457 16.969L13.7168 17.304C14.7983 16.1024 15.9381 14.9544 17.1309 13.8645L16.7939 13.4954L16.793 13.4944C17.9975 12.3937 19.2574 11.3532 20.5654 10.3743L20.8643 10.7737C22.156 9.80685 23.497 8.9028 24.8818 8.0647L24.624 7.63696C26.0168 6.79411 27.4544 6.01893 28.9316 5.31372L29.1465 5.76294C30.5989 5.06959 32.0908 4.44515 33.6172 3.89478L33.4473 3.42505C34.9746 2.87434 36.5366 2.39698 38.1289 1.99634L38.251 2.48071C39.8069 2.08924 41.3922 1.77217 43.0029 1.53345L42.9297 1.03931C44.5302 0.802098 46.1554 0.640971 47.8018 0.560791L47.8262 1.05981C48.6292 1.02071 49.4373 1.00122 50.25 1.00122C51.0627 1.00122 51.8708 1.02071 52.6738 1.05981L52.6973 0.560791C54.3436 0.640939 55.9688 0.802129 57.5693 1.03931L57.4971 1.53345C59.1078 1.77217 60.6931 2.08924 62.249 2.48071L62.3701 1.99634C63.9625 2.39695 65.5244 2.87437 67.0518 3.42505L66.8828 3.89478C68.4092 4.44514 69.9011 5.06959 71.3535 5.76294L71.5674 5.31372C73.0447 6.01891 74.4822 6.79413 75.875 7.63696L75.6182 8.0647C77.003 8.9028 78.344 9.80685 79.6357 10.7737L79.9336 10.3743C81.2417 11.3532 82.5014 12.3937 83.7061 13.4944V13.4954L83.3691 13.8645C84.5619 14.9544 85.7017 16.1024 86.7832 17.304L87.1533 16.969C88.2444 18.1812 89.276 19.4482 90.2461 20.7639L89.8457 21.0598C90.8028 22.3579 91.698 23.7048 92.5273 25.0959L92.9541 24.8411C93.7875 26.2389 94.554 27.6812 95.251 29.1633L94.8018 29.3752C95.4865 30.8313 96.1032 32.326 96.6465 33.8557L97.1162 33.6887Z" stroke="#B4B4B4" stroke-dasharray="5 5"/>
<path fill-rule="evenodd" clip-rule="evenodd" d="M100.5 50.2525H98.5C98.5 23.5946 77.0002 2.00122 50.5 2.00122V0.0012207C78.1142 0.0012207 100.5 22.4995 100.5 50.2525Z" fill="#F3BC2F"/>
<path d="M47.78 35.4H54.18V67.4H47.78V41.8H44.58V38.6L47.78 35.4Z" fill="black"/>
</svg>
