<svg width="101" height="101" viewBox="0 0 101 101" fill="none" xmlns="http://www.w3.org/2000/svg">
<path d="M97.1162 33.6875C97.6595 35.2171 98.1312 36.7808 98.5264 38.375L98.042 38.4951C98.4279 40.0523 98.7403 41.6392 98.9756 43.251L99.4688 43.1787C99.7025 44.7797 99.8614 46.4052 99.9404 48.0518H99.9414L99.4424 48.0752C99.4809 48.8784 99.5 49.6871 99.5 50.5C99.5 51.3129 99.4809 52.1216 99.4424 52.9248L99.9404 52.9473C99.8615 54.5938 99.7025 56.2193 99.4688 57.8203L98.9756 57.749C98.7403 59.3608 98.4279 60.9477 98.042 62.5049L98.5264 62.624C98.1313 64.2183 97.6595 65.7819 97.1162 67.3115L96.6465 67.1455C96.1032 68.6752 95.4865 70.1699 94.8018 71.626L95.251 71.8369C94.554 73.3191 93.7875 74.7613 92.9541 76.1592L92.5273 75.9053C91.698 77.2964 90.8028 78.6433 89.8457 79.9414L90.2461 80.2363C89.276 81.5521 88.2444 82.8191 87.1533 84.0312L86.7832 83.6973C85.7017 84.8988 84.5619 86.0468 83.3691 87.1367L83.7061 87.5059C82.5014 88.6065 81.2417 89.647 79.9336 90.626L79.6357 90.2275C78.344 91.1944 77.003 92.0984 75.6182 92.9365L75.875 93.3633C74.4822 94.2061 73.0447 94.9813 71.5674 95.6865L71.3535 95.2383C69.9011 95.9316 68.4092 96.5561 66.8828 97.1064L67.0518 97.5752C65.5244 98.1259 63.9625 98.6033 62.3701 99.0039L62.249 98.5205C60.6931 98.912 59.1078 99.2291 57.4971 99.4678L57.5693 99.9609C55.9688 100.198 54.3436 100.359 52.6973 100.439L52.6738 99.9414C51.8708 99.9805 51.0627 100 50.25 100C49.4373 100 48.6292 99.9805 47.8262 99.9414L47.8018 100.439C46.1554 100.359 44.5302 100.198 42.9297 99.9609L43.0029 99.4678C41.3922 99.2291 39.8069 98.912 38.251 98.5205L38.1289 99.0039C36.5366 98.6032 34.9746 98.1259 33.4473 97.5752L33.6172 97.1064C32.0908 96.5561 30.5989 95.9316 29.1465 95.2383L28.9316 95.6865C27.4544 94.9813 26.0168 94.2062 24.624 93.3633L24.8818 92.9365C23.497 92.0984 22.156 91.1944 20.8643 90.2275L20.5654 90.626C19.2574 89.647 17.9975 88.6065 16.793 87.5059L17.1309 87.1367C15.9381 86.0468 14.7983 84.8988 13.7168 83.6973L13.3457 84.0312C12.2546 82.8191 11.223 81.5521 10.2529 80.2363L10.6543 79.9414C9.69721 78.6433 8.80198 77.2964 7.97266 75.9053L7.54492 76.1592C6.7116 74.7613 5.945 73.3191 5.24805 71.8369L5.69824 71.626C5.01355 70.1699 4.39684 68.6752 3.85352 67.1455L3.38281 67.3115C2.83957 65.782 2.36774 64.2182 1.97266 62.624L2.45801 62.5049C2.07207 60.9477 1.75972 59.3608 1.52441 57.749L1.03027 57.8203C0.796572 56.2193 0.637553 54.5938 0.558594 52.9473L1.05762 52.9248C1.01908 52.1216 1 51.3129 1 50.5C1 49.6871 1.01908 48.8784 1.05762 48.0752L0.558594 48.0518C0.637584 46.4052 0.796542 44.7797 1.03027 43.1787L1.52441 43.251C1.75972 41.6392 2.07207 40.0523 2.45801 38.4951L1.97266 38.375C2.35078 36.8494 2.79853 35.3514 3.3125 33.8848L3.38281 33.6875L3.85352 33.8545C4.39684 32.3248 5.01355 30.8301 5.69824 29.374L5.24805 29.1621C5.94502 27.68 6.71158 26.2377 7.54492 24.8398L7.97266 25.0947C8.80198 23.7036 9.69721 22.3567 10.6543 21.0586L10.2529 20.7627C11.223 19.447 12.2546 18.1799 13.3457 16.9678L13.7168 17.3027C14.7983 16.1012 15.9381 14.9532 17.1309 13.8633L16.7939 13.4941L16.793 13.4932C17.9975 12.3925 19.2574 11.352 20.5654 10.373L20.8643 10.7725C22.156 9.80563 23.497 8.90158 24.8818 8.06348L24.624 7.63574C26.0168 6.79289 27.4544 6.01771 28.9316 5.3125L29.1465 5.76172C30.5989 5.06837 32.0908 4.44392 33.6172 3.89355L33.4473 3.42383C34.9746 2.87312 36.5366 2.39576 38.1289 1.99512L38.251 2.47949C39.8069 2.08802 41.3922 1.77095 43.0029 1.53223L42.9297 1.03809C44.5302 0.800878 46.1554 0.639751 47.8018 0.55957L47.8262 1.05859C48.6292 1.01949 49.4373 1 50.25 1C51.0627 1 51.8708 1.01949 52.6738 1.05859L52.6973 0.55957C54.3436 0.639719 55.9688 0.800908 57.5693 1.03809L57.4971 1.53223C59.1078 1.77095 60.6931 2.08802 62.249 2.47949L62.3701 1.99512C63.9625 2.39573 65.5244 2.87315 67.0518 3.42383L66.8828 3.89355C68.4092 4.44392 69.9011 5.06837 71.3535 5.76172L71.5674 5.3125C73.0447 6.01769 74.4822 6.79291 75.875 7.63574L75.6182 8.06348C77.003 8.90158 78.344 9.80563 79.6357 10.7725L79.9336 10.373C81.2417 11.352 82.5014 12.3925 83.7061 13.4932V13.4941L83.3691 13.8633C84.5619 14.9532 85.7017 16.1012 86.7832 17.3027L87.1533 16.9678C88.2444 18.1799 89.276 19.447 90.2461 20.7627L89.8457 21.0586C90.8028 22.3567 91.698 23.7036 92.5273 25.0947L92.9541 24.8398C93.7875 26.2377 94.554 27.68 95.251 29.1621L94.8018 29.374C95.4865 30.8301 96.1032 32.3248 96.6465 33.8545L97.1162 33.6875Z" stroke="#B4B4B4" stroke-dasharray="5 5"/>
<path fill-rule="evenodd" clip-rule="evenodd" d="M98.5 50.2513C98.5 76.9091 77.0002 98.5025 50.5 98.5025C23.9998 98.5025 2.5 76.9091 2.5 50.2513H0.5C0.5 78.0043 22.8858 100.503 50.5 100.503C78.1142 100.503 100.5 78.0043 100.5 50.2513C100.5 22.4983 78.1142 0 50.5 0V2C77.0002 2 98.5 23.5934 98.5 50.2513Z" fill="#F3BC2F"/>
<path d="M48.644 35.4H48.772C51.3533 35.4213 53.476 36.1893 55.14 37.704C56.8253 39.2187 57.6787 41.1387 57.7 43.464C57.7427 45.4267 57.5293 46.9733 57.06 48.104C56.5693 49.2773 55.652 50.344 54.308 51.304C55.6307 52.6053 56.5053 53.672 56.932 54.504C57.444 55.5493 57.7 56.9787 57.7 58.792C57.7 61.5013 56.7933 63.6453 54.98 65.224C53.2947 66.6747 51.1293 67.4 48.484 67.4H48.068H47.556C44.9747 67.3787 42.852 66.6533 41.188 65.224C40.3347 64.4773 39.6733 63.56 39.204 62.472C38.7347 61.4053 38.5 60.1893 38.5 58.824V57.992V57.8H38.692H44.708H44.9V57.896C44.9 59.5173 45.156 60.5733 45.668 61.064C46.1373 61.5547 47.1293 61.8 48.644 61.8C49.54 61.7787 50.2227 61.4267 50.692 60.744C51.0973 60.168 51.3 59.4533 51.3 58.6C51.3 57.064 51.076 56.0187 50.628 55.464C50.1587 54.888 49.284 54.6 48.004 54.6H45.092H44.9V48.2H48.644C49.54 48.1787 50.2227 47.8267 50.692 47.144C51.0973 46.568 51.3 45.8533 51.3 45C51.3 43.4853 51.076 42.44 50.628 41.864C50.18 41.3093 49.3267 41.0213 48.068 41C46.852 41.0213 46.02 41.3093 45.572 41.864C45.124 42.4187 44.9 43.432 44.9 44.904V45H38.5V44.808V43.368C38.5427 41.0853 39.3853 39.208 41.028 37.736C42.6707 36.2427 44.7613 35.464 47.3 35.4H47.556H48.644ZM44.708 44.776V44.808H44.676L44.708 44.776Z" fill="black"/>
</svg>
